<?xml version="1.0" encoding="utf-8"?>
<!-- Generator: Adobe Illustrator 17.0.0, SVG Export Plug-In . SVG Version: 6.00 Build 0)  -->
<!DOCTYPE svg PUBLIC "-//W3C//DTD SVG 1.1//EN" "http://www.w3.org/Graphics/SVG/1.1/DTD/svg11.dtd">
<svg version="1.1" id="Layer_1" xmlns="http://www.w3.org/2000/svg" xmlns:xlink="http://www.w3.org/1999/xlink" x="0px" y="0px"
	 width="180px" height="140px" viewBox="0 0 180 140" enable-background="new 0 0 180 140" xml:space="preserve">
<g>
	<g>
		<path d="M43.952,27.964v6.048L28.436,47.585H43.43v7.002H14.341v-5.904l15.606-14.04H15.259v-6.678H43.952 M44.952,26.964h-1
			H15.259h-1v1v6.678v1h1h12.082L13.672,47.939l-0.331,0.298v0.445v5.904v1h1H43.43h1v-1v-7.002v-1h-1H31.098l13.512-11.82
			l0.342-0.299v-0.454v-6.048V26.964L44.952,26.964z"/>
	</g>
	<g>
		<path d="M75.39,27.964l10.765,26.623H74.976l-0.882-2.61H62.772l-0.954,2.61H50.765l11.539-26.623H75.39 M65.202,45.407h6.606
			l-3.204-9.36L65.202,45.407 M76.064,26.964H75.39H62.304h-0.656l-0.261,0.602L49.848,54.189l-0.606,1.398h1.523h11.053h0.699
			l0.24-0.657l0.714-1.953h9.905l0.652,1.93l0.23,0.68h0.718h11.179h1.483l-0.556-1.375L76.317,27.589L76.064,26.964L76.064,26.964z
			 M66.629,44.407l1.947-5.355l1.833,5.355H66.629L66.629,44.407z"/>
	</g>
	<g>
		<path d="M106.76,27.262c5.52,0,9.792,1.023,12.816,3.069c3.024,2.046,4.626,4.983,4.806,8.811h-11.79
			c-0.168-1.644-0.75-2.898-1.746-3.762c-0.996-0.864-2.357-1.296-4.086-1.296c-2.208,0-3.897,0.618-5.067,1.854
			c-1.17,1.236-1.755,3.018-1.755,5.346c0,2.316,0.585,4.086,1.755,5.31c1.17,1.224,2.859,1.836,5.067,1.836
			c1.596,0,2.883-0.363,3.861-1.089c0.978-0.726,1.623-1.803,1.935-3.231h11.898c-0.54,3.684-2.307,6.468-5.301,8.352
			c-2.994,1.884-7.126,2.826-12.394,2.826c-5.916,0-10.38-1.179-13.393-3.537c-3.012-2.358-4.518-5.847-4.518-10.467
			c0-4.632,1.506-8.127,4.518-10.485C96.38,28.441,100.844,27.262,106.76,27.262 M106.76,26.262c-6.117,0-10.83,1.262-14.009,3.75
			c-3.252,2.547-4.901,6.34-4.901,11.273c0,4.922,1.649,8.708,4.901,11.255c3.179,2.488,7.892,3.75,14.009,3.75
			c5.435,0,9.784-1.003,12.926-2.98c3.238-2.038,5.176-5.084,5.758-9.053l0.168-1.145h-1.157h-11.898h-0.805l-0.172,0.787
			c-0.261,1.194-0.769,2.058-1.554,2.641c-0.797,0.592-1.896,0.892-3.265,0.892c-1.941,0-3.363-0.499-4.344-1.527
			c-0.981-1.026-1.478-2.58-1.478-4.619c0-2.053,0.498-3.62,1.481-4.659c0.982-1.037,2.402-1.541,4.341-1.541
			c1.472,0,2.626,0.354,3.431,1.051c0.804,0.697,1.264,1.714,1.406,3.108l0.092,0.898h0.903h11.79h1.048l-0.049-1.047
			c-0.194-4.143-1.959-7.37-5.244-9.592C116.958,27.353,112.457,26.262,106.76,26.262L106.76,26.262z"/>
	</g>
	<g>
		<path d="M162.829,27.964v26.623h-10.314V43.823h-11.772v10.764h-10.314V27.964h10.314v9.216h11.772v-9.216H162.829
			 M163.829,26.964h-1h-10.314h-1v1v8.216h-9.772v-8.216v-1h-1h-10.314h-1v1v26.623v1h1h10.314h1v-1v-9.764h9.772v9.764v1h1h10.314
			h1v-1V27.964V26.964L163.829,26.964z"/>
	</g>
	<g>
		<path d="M101.58,67.281l1.622,1.868c-3.045,1.009-5.561,1.74-7.546,2.195c-1.986,0.454-3.63,0.682-4.932,0.682
			c-1.92,0-3.37-0.24-4.353-0.719c-0.981-0.479-1.506-1.192-1.571-2.139c-2.626,1.034-4.788,1.769-6.487,2.204
			c-1.699,0.436-3.232,0.654-4.601,0.654c-2.603,0-4.826-0.554-6.669-1.663c-1.842-1.108-2.763-2.44-2.763-3.997
			c0-2.503,5.13-4.402,15.39-5.697c2.14-0.274,3.816-0.492,5.03-0.653c0.022-0.373,0.05-0.775,0.083-1.205
			c0.033-0.429,0.049-0.682,0.049-0.756c0-0.921-0.375-1.603-1.125-2.045s-1.919-0.663-3.508-0.663s-2.841,0.162-3.757,0.486
			c-0.915,0.323-1.373,0.759-1.373,1.307v0.392c0,0.548-0.464,0.959-1.39,1.233c-0.928,0.274-2.34,0.411-4.236,0.411
			c-1.258,0-2.207-0.134-2.847-0.401c-0.64-0.267-0.96-0.669-0.96-1.205c0-0.411,0.293-0.859,0.877-1.345
			c0.585-0.486,1.429-0.984,2.532-1.494c1.964-0.896,4.27-1.609,6.917-2.139c2.647-0.529,5.24-0.794,7.777-0.794
			c4.324,0,7.562,0.56,9.714,1.681c2.151,1.121,3.227,2.814,3.227,5.08c0,0.523-0.088,1.612-0.265,3.268
			c-0.177,1.656-0.265,3.051-0.265,4.184c0,0.635,0.193,1.114,0.579,1.438c0.387,0.324,0.954,0.486,1.704,0.486
			c0.331,0,0.729-0.05,1.192-0.149C100.09,67.686,100.741,67.518,101.58,67.281z M84.668,62.574
			c-0.485,0.087-1.202,0.212-2.151,0.374c-4.743,0.797-7.115,1.756-7.115,2.877c0,0.623,0.381,1.155,1.142,1.597
			c0.761,0.442,1.693,0.663,2.797,0.663c0.617,0,1.329-0.093,2.135-0.28c0.805-0.187,1.858-0.517,3.16-0.99L84.668,62.574z"/>
		<path d="M121.635,42.31c-0.132,1.88-0.231,3.891-0.297,6.033c-0.066,2.142-0.1,4.657-0.1,7.545v2.746
			c0,3.312,0.044,5.609,0.133,6.892c0.088,1.282-16.725,43.614-16.504,44.037c0.154,0.336,0.551,0.592,1.18,0.766
			s1.456,0.261,2.493,0.261c0.089,0,0.231-0.006,0.419-0.019c0.188-0.013,0.343-0.019,0.475-0.019l-0.033,2.185
			c-2.316-0.087-4.424-0.152-6.332-0.196c-1.911-0.043-3.538-0.065-4.885-0.065c-1.39,0-3.022,0.021-4.897,0.065
			c-1.876,0.044-3.95,0.109-6.223,0.196v-2.185c0.089,0,0.249,0.006,0.48,0.019c0.232,0.012,0.402,0.019,0.513,0.019
			c1.743,0,2.918-0.308,3.524-0.924c0.608-0.617,17.875-43.555,17.875-45.858v-2.989v-0.84l0.066-3.941v-6.649
			c0-1.432-0.254-2.366-0.762-2.802c-0.507-0.435-1.434-0.653-2.78-0.653c-0.132,0-0.309,0.006-0.518,0.019
			c-0.21,0.012-0.53,0.031-0.972,0.056l-0.198-1.98c2.957-0.199,5.88-0.442,8.781-0.729
			C115.976,43.013,118.833,42.683,121.635,42.31z"/>
		<path d="M143.777,52.395l-0.066,0.916c0.354,0,0.905,0.009,1.666,0.028c0.762,0.018,1.335,0.028,1.71,0.028
			c0.971,0,1.953-0.012,2.945-0.037c0.993-0.025,1.975-0.05,2.946-0.075v3.044c-1.479-0.05-2.99-0.087-4.523-0.112
			c-1.533-0.025-3.111-0.037-4.744-0.037v3.138v3.754v2.335c0,1.705,0.31,2.789,0.927,3.25c0.618,0.461,1.843,0.691,3.674,0.691
			c0.331,0,0.684-0.012,1.07-0.037c0.386-0.025,0.783-0.05,1.181-0.075l-0.033,2.055c-2.67-0.087-5.063-0.153-7.183-0.196
			c-2.117-0.044-3.828-0.065-5.129-0.065c-1.391,0-3.057,0.022-4.998,0.065c-1.941,0.043-4.093,0.109-6.453,0.196v-2.055
			c0.154,0,0.319,0.003,0.507,0.009c0.187,0.006,0.452,0.009,0.783,0.009c1.567,0,2.637-0.258,3.21-0.775
			c0.574-0.517,0.861-1.734,0.861-3.651V63.19c0-1.27-0.045-3.38-0.133-6.332c0-0.299-0.011-0.523-0.033-0.672h-2.085
			c-0.529,0-1.081,0.003-1.654,0.009c-0.574,0.006-1.17,0.016-1.788,0.028v-2.372c1.148-0.013,2.152-0.137,3.023-0.374
			c0.871-0.237,1.666-0.61,2.372-1.121c0.132-2.889,2.062-5.261,5.792-7.116c3.729-1.855,8.395-2.783,13.999-2.783
			c3.177,0,5.626,0.317,7.358,0.953c1.732,0.635,2.604,1.525,2.604,2.671c0,0.697-0.452,1.32-1.346,1.868
			c-0.894,0.548-1.908,0.822-3.056,0.822c-1.126,0-2.604-0.461-4.435-1.382c-1.832-0.921-3.377-1.382-4.634-1.382
			c-1.522,0-2.604,0.398-3.243,1.195C144.229,48,143.866,49.73,143.777,52.395z"/>
		<path d="M34.66,43.075c-0.177,2.366-0.315,4.585-0.414,6.659c-0.099,2.073-0.16,4.006-0.182,5.799
			c2.272-0.947,4.396-1.653,6.371-2.12c1.975-0.467,3.845-0.7,5.609-0.7c3.663,0,6.421,0.619,8.274,1.858
			c1.854,1.239,2.779,3.079,2.779,5.519c0,0.498-0.044,1.56-0.132,3.184c-0.089,1.625-0.133,2.998-0.133,4.119
			c0,1.021,0.287,1.709,0.86,2.063c0.574,0.355,1.666,0.533,3.277,0.533h0.596v40.324c-3.288-0.112-5.648-0.184-7.083-0.215
			c-1.435-0.031-2.614-0.047-3.541-0.047c-1.28,0-4.38,0.081-9.3,0.243l-0.331,0.019V69.989h0.331c1.544,0,2.576-0.253,3.094-0.757
			c0.519-0.504,0.778-1.983,0.778-4.436v-2.036c0-2.303-0.403-3.835-1.208-4.594c-0.806-0.76-2.19-1.139-4.153-1.139
			c-0.729,0-1.562,0.081-2.499,0.243c-0.938,0.162-2.068,0.423-3.393,0.784l-0.133,1.345c-0.044,0.561-0.076,1.295-0.099,2.204
			c-0.022,0.909-0.033,1.899-0.033,2.97v2.241c0,1.37,0.259,2.241,0.777,2.615c0.519,0.373,1.518,0.561,2.995,0.561h0.232
			l-0.033,40.324c-2.008-0.087-3.895-0.153-5.66-0.196c-1.765-0.044-3.354-0.065-4.766-0.065c-1.279,0-2.779,0.022-4.501,0.065
			c-1.721,0.044-3.607,0.109-5.659,0.196V69.989h0.596c0.993,0,1.804-0.078,2.433-0.234c0.629-0.155,1.087-0.395,1.374-0.719
			c0.529-0.66,0.816-4.09,0.859-10.291c0-0.934,0.012-1.644,0.033-2.129l0.066-4.781v-0.729c0-1.967-0.242-3.188-0.728-3.661
			c-0.485-0.473-1.423-0.71-2.813-0.71c-0.242,0-0.502,0.003-0.777,0.009c-0.276,0.006-0.58,0.016-0.91,0.028v-2.017
			c2.868-0.149,5.73-0.364,8.588-0.645S31.813,43.486,34.66,43.075z"/>
		<path d="M83.576,86.369c-0.022,0.672-0.056,1.638-0.1,2.895c-0.198,5.242-0.298,8.878-0.298,10.908
			c0,1.32,0.292,2.198,0.877,2.633c0.585,0.435,1.693,0.654,3.326,0.654c0.088,0,0.248-0.006,0.48-0.019
			c0.231-0.012,0.413-0.019,0.546-0.019v2.148c-3.266-0.1-5.737-0.168-7.414-0.206c-1.677-0.037-3.144-0.056-4.401-0.056
			c-1.081,0-2.504,0.023-4.27,0.07c-1.766,0.047-3.751,0.11-5.957,0.191v-2.148c0.154,0,0.342,0.006,0.562,0.019
			c0.221,0.013,0.375,0.019,0.463,0.019c1.699,0,2.836-0.221,3.409-0.663c0.573-0.442,0.86-1.585,0.86-3.427V98.08v-4.146
			c0-1.818-0.265-2.936-0.794-3.353c-0.53-0.417-1.556-0.625-3.078-0.625c-0.331,0-0.59,0.003-0.777,0.009
			c-0.188,0.006-0.381,0.015-0.579,0.028l-0.199-2.017c3.111-0.124,6.112-0.321,9.002-0.588
			C78.126,87.119,80.906,86.78,83.576,86.369z M77.155,76.04l3.972,1.382c1.125,0.361,1.931,0.731,2.416,1.111
			c0.485,0.38,0.727,0.825,0.727,1.335c0,0.511-0.209,0.95-0.629,1.317c-0.419,0.367-1.113,0.719-2.085,1.055l-4.269,1.494
			l-4.005-1.232c-1.17-0.361-2.014-0.747-2.532-1.158c-0.519-0.411-0.777-0.89-0.777-1.438c0-0.511,0.231-0.965,0.695-1.364
			c0.463-0.398,1.202-0.759,2.217-1.083L77.155,76.04z"/>
		<path d="M139.243,76.619c-0.133,1.88-0.231,3.891-0.298,6.033c-0.065,2.142-0.099,4.657-0.099,7.545v2.746
			c0,3.312,0.044,5.609,0.132,6.892c0.089,1.283,0.243,2.135,0.464,2.559c0.154,0.337,0.54,0.592,1.169,0.766
			c0.629,0.174,1.468,0.261,2.504,0.261c0.089,0,0.221-0.006,0.408-0.019c0.188-0.013,0.354-0.019,0.485-0.019l-0.033,2.185
			c-2.316-0.087-4.435-0.152-6.343-0.196c-1.909-0.043-3.53-0.065-4.876-0.065c-1.391,0-3.023,0.021-4.898,0.065
			c-1.875,0.044-3.949,0.109-6.223,0.196v-2.185c0.089,0,0.243,0.006,0.475,0.019c0.232,0.013,0.408,0.019,0.518,0.019
			c1.743,0,2.913-0.308,3.52-0.924c0.606-0.616,0.915-2.076,0.915-4.38v-2.988v-0.84l0.066-3.941v-6.649
			c0-1.432-0.254-2.366-0.761-2.802c-0.508-0.436-1.435-0.654-2.78-0.654c-0.133,0-0.309,0.006-0.519,0.019
			c-0.21,0.013-0.529,0.031-0.971,0.056l-0.198-1.979c2.956-0.199,5.88-0.442,8.781-0.729
			C133.583,77.323,136.441,76.993,139.243,76.619z"/>
	</g>
	<path d="M28.292,92.221v2.05c2.272-0.087,4.347-0.153,6.222-0.196c1.876-0.044,3.509-0.065,4.898-0.065
		c1.346,0,2.973,0.022,4.882,0.065c1.908,0.044,4.021,0.109,6.338,0.196l0.03-2.05H28.292z"/>
	<path fill="none" d="M150.678,87.114c0.024,0.046,0.047,0.086,0.066,0.127c0.281,0.564,0.537,1.144,0.849,1.69
		c0.506,0.887,1.14,1.677,1.974,2.287c0.506,0.369,1.06,0.635,1.684,0.726c1.156,0.169,2.216-0.123,3.202-0.716
		c0.744-0.448,1.368-1.035,1.937-1.684c0.127-0.144,0.249-0.292,0.368-0.432c0.128,0.188,0.241,0.37,0.371,0.539
		c0.095,0.12,0.213,0.088,0.25-0.059c0.02-0.077,0.037-0.163,0.023-0.239c-0.051-0.276-0.084-0.561-0.183-0.821
		c-0.102-0.268-0.265-0.515-0.416-0.762c-0.034-0.054-0.142-0.097-0.204-0.086c-0.041,0.007-0.095,0.122-0.091,0.185
		c0.014,0.227,0.054,0.452,0.076,0.679c0.006,0.061,0.012,0.14-0.021,0.184c-0.355,0.487-0.755,0.938-1.211,1.332
		c-0.562,0.489-1.184,0.89-1.899,1.121c-0.801,0.258-1.609,0.315-2.429,0.102c-0.855-0.223-1.527-0.733-2.12-1.363
		c-0.835-0.89-1.428-1.933-1.912-3.046c-0.037-0.086-0.019-0.146,0.024-0.224c0.107-0.191,0.205-0.388,0.287-0.59
		c0.025-0.059,0.01-0.185-0.028-0.206c-0.055-0.03-0.166-0.019-0.22,0.021c-0.182,0.135-0.37,0.272-0.52,0.441
		c-0.251,0.286-0.513,0.573-0.6,0.963c-0.017,0.08,0.004,0.168,0.007,0.252c0.086-0.011,0.173-0.02,0.257-0.036
		c0.025-0.005,0.049-0.029,0.07-0.047C150.402,87.342,150.533,87.234,150.678,87.114z M155.052,85.139
		c0.061-0.16,0.119-0.296,0.164-0.437c0.112-0.351,0.159-0.712,0.064-1.073c-0.025-0.094-0.109-0.212-0.192-0.237
		c-0.065-0.02-0.195,0.064-0.252,0.137c-0.303,0.393-0.391,0.855-0.376,1.336c0.004,0.152,0.062,0.306,0.119,0.449
		c0.043,0.107,0.152,0.12,0.242,0.051C154.91,85.297,154.984,85.209,155.052,85.139z"/>
	<path fill-rule="evenodd" clip-rule="evenodd" d="M150.678,87.114c-0.145,0.12-0.276,0.229-0.408,0.337
		c-0.021,0.018-0.045,0.042-0.07,0.047c-0.084,0.016-0.171,0.024-0.257,0.036c-0.003-0.084-0.023-0.172-0.007-0.252
		c0.087-0.39,0.349-0.677,0.6-0.963c0.15-0.168,0.338-0.306,0.52-0.441c0.054-0.039,0.165-0.051,0.22-0.021
		c0.038,0.021,0.054,0.146,0.028,0.206c-0.082,0.202-0.18,0.399-0.287,0.59c-0.043,0.079-0.061,0.139-0.024,0.224
		c0.484,1.113,1.077,2.156,1.912,3.046c0.593,0.63,1.266,1.14,2.12,1.363c0.819,0.213,1.628,0.156,2.429-0.102
		c0.716-0.231,1.337-0.632,1.899-1.121c0.456-0.395,0.855-0.845,1.211-1.332c0.033-0.045,0.027-0.124,0.021-0.184
		c-0.023-0.227-0.062-0.452-0.076-0.679c-0.004-0.063,0.05-0.177,0.091-0.185c0.062-0.011,0.17,0.032,0.204,0.086
		c0.151,0.247,0.314,0.494,0.416,0.762c0.099,0.26,0.132,0.544,0.183,0.821c0.014,0.076-0.004,0.163-0.023,0.239
		c-0.037,0.147-0.155,0.179-0.25,0.059c-0.13-0.169-0.243-0.351-0.371-0.539c-0.119,0.14-0.241,0.288-0.368,0.432
		c-0.568,0.649-1.192,1.236-1.937,1.684c-0.986,0.594-2.046,0.885-3.202,0.716c-0.623-0.091-1.178-0.356-1.684-0.726
		c-0.834-0.609-1.468-1.399-1.974-2.287c-0.312-0.547-0.567-1.126-0.849-1.69C150.725,87.2,150.703,87.16,150.678,87.114z"/>
	
		<ellipse transform="matrix(0.9634 0.2679 -0.2679 0.9634 28.4889 -38.4232)" fill-rule="evenodd" clip-rule="evenodd" cx="155.023" cy="85.169" rx="0.888" ry="2.134"/>
	
		<ellipse transform="matrix(0.9636 0.2672 -0.2672 0.9636 28.6355 -39.0423)" fill-rule="evenodd" clip-rule="evenodd" cx="157.781" cy="85.702" rx="0.89" ry="2.134"/>
	<path fill="none" d="M153.013,95.144c0.061-0.16,0.12-0.295,0.165-0.437c0.111-0.351,0.158-0.712,0.064-1.073
		c-0.024-0.093-0.109-0.212-0.191-0.237c-0.066-0.02-0.196,0.064-0.252,0.137c-0.303,0.393-0.393,0.855-0.377,1.337
		c0.005,0.151,0.062,0.306,0.119,0.449c0.045,0.107,0.152,0.119,0.242,0.05C152.872,95.302,152.944,95.213,153.013,95.144z"/>
	
		<ellipse transform="matrix(0.8161 0.578 -0.578 0.8161 77.7773 -71.1444)" fill-rule="evenodd" clip-rule="evenodd" cx="150.66" cy="86.62" rx="0.368" ry="1.173"/>
	
		<ellipse transform="matrix(0.9278 -0.373 0.373 0.9278 -21.4777 66.4384)" fill-rule="evenodd" clip-rule="evenodd" cx="160.961" cy="88.725" rx="0.368" ry="1.172"/>
	
		<circle fill-rule="evenodd" clip-rule="evenodd" fill="none" stroke="#000000" stroke-width="0.6533" stroke-miterlimit="10" cx="156.05" cy="87.659" r="9.608"/>
</g>
</svg>
