<?xml version="1.0" encoding="utf-8"?>
<!-- Generator: Adobe Illustrator 17.0.0, SVG Export Plug-In . SVG Version: 6.00 Build 0)  -->
<!DOCTYPE svg PUBLIC "-//W3C//DTD SVG 1.1//EN" "http://www.w3.org/Graphics/SVG/1.1/DTD/svg11.dtd">
<svg version="1.1" id="Layer_1" xmlns="http://www.w3.org/2000/svg" xmlns:xlink="http://www.w3.org/1999/xlink" x="0px" y="0px"
	 width="180px" height="140px" viewBox="0 0 180 140" enable-background="new 0 0 180 140" xml:space="preserve">
<g>
	<g>
		<g>
			<path d="M26.476,52.134v1.955L11.553,78.714h6.051c1.687,0,2.931-0.171,3.735-0.515c0.805-0.344,1.525-0.971,2.16-1.88
				c0.636-0.91,1.174-2.152,1.615-3.728h2.198l-0.466,8.68H3.128V79.36l14.807-24.668h-4.281c-2.737,0-4.546,0.313-5.429,0.935
				c-0.882,0.623-1.641,2.045-2.276,4.265H3.867l0.409-7.757H26.476 M27.272,51.34h-0.795h-22.2H3.523l-0.041,0.754l-0.408,7.757
				l-0.045,0.837h0.838h2.082H6.55l0.166-0.576c0.723-2.53,1.47-3.482,1.97-3.835c0.51-0.36,1.785-0.789,4.969-0.789h2.875
				L2.446,78.951l-0.113,0.188v0.221v1.912v0.796h0.795h23.719H27.6l0.041-0.754l0.467-8.68l0.045-0.839h-0.84h-2.198h-0.603
				l-0.163,0.582c-0.415,1.481-0.919,2.655-1.5,3.487c-0.547,0.781-1.159,1.321-1.82,1.603c-0.701,0.3-1.854,0.452-3.423,0.452
				h-4.639l14.192-23.417l0.114-0.189v-0.222v-1.955L27.272,51.34L27.272,51.34z"/>
		</g>
		<g>
			<path d="M46.182,51.619l8.27,22.561c0.817,2.236,1.557,3.578,2.218,4.03c0.662,0.45,1.297,0.675,1.906,0.675v2.385H45.482v-2.385
				c1.18,0,1.913-0.124,2.199-0.375c0.285-0.251,0.428-0.57,0.428-0.956c0-0.345-0.117-0.795-0.351-1.354l-0.253-0.665l-0.758-2.127
				h-8.113l-0.506,1.439c-0.363,1.017-0.545,1.733-0.545,2.149c0,0.701,0.215,1.192,0.642,1.472c0.263,0.17,0.628,0.29,1.095,0.356
				c0.152,0.496,0.487,0.926,1.006,1.14v1.308h-8.717v-0.033c1.25-0.269,1.67-1.658,1.258-2.68c1.119-0.607,2.094-2.057,2.925-4.356
				l8.114-22.583L46.182,51.619 M39.47,70.937h6.401l-3.289-8.703L39.47,70.937 M46.738,50.824h-0.556h-2.276h-0.559l-0.189,0.527
				l-8.114,22.582c-0.758,2.096-1.618,3.417-2.556,3.926l-0.623,0.336l0.264,0.659c0.143,0.356,0.123,0.798-0.051,1.124
				c-0.137,0.258-0.351,0.42-0.636,0.482l-0.628,0.134v0.643v0.033v0.796h0.795h8.717h0.795v-0.796v-1.308V79.43l-0.493-0.203
				c-0.333-0.137-0.482-0.423-0.548-0.637l-0.148-0.483l-0.501-0.071c-0.437-0.062-0.661-0.161-0.772-0.234
				c-0.069-0.046-0.281-0.183-0.281-0.806c0-0.146,0.048-0.622,0.498-1.881l0.321-0.912h6.989l0.571,1.599l0.002,0.007l0.003,0.007
				l0.253,0.667l0.004,0.012l0.005,0.013c0.252,0.602,0.289,0.913,0.289,1.047c0,0.152-0.042,0.253-0.147,0.349
				c-0.048,0.026-0.394,0.188-1.684,0.188h-0.795v0.794v2.385v0.796h0.795h13.095h0.795v-0.797v-2.385v-0.794h-0.795
				c-0.444,0-0.934-0.182-1.458-0.538c-0.235-0.16-0.892-0.836-1.919-3.645l-8.27-22.563L46.738,50.824L46.738,50.824z
				 M40.599,70.14l2.004-5.602l2.117,5.602H40.599L40.599,70.14z"/>
		</g>
		<g>
			<path d="M76.024,51.619c3.205,0,5.922,1.168,8.152,3.502c0.299-0.731,0.572-1.597,0.818-2.599h2.14l0.272,10.765h-2.14
				c-0.635-2.922-1.676-5.131-3.122-6.629c-1.447-1.496-3.162-2.245-5.147-2.245c-2.283,0-4.002,0.988-5.156,2.965
				s-1.731,5.064-1.731,9.261c0,2.951,0.207,5.289,0.623,7.014c0.415,1.727,1.235,3.055,2.461,3.986
				c1.225,0.932,2.565,1.398,4.018,1.398c1.919,0,3.632-0.737,5.136-2.214c1.505-1.474,2.588-3.724,3.25-6.746h2.16v10.937h-2.16
				c-0.247-1.16-0.616-2.091-1.11-2.793c-2.192,2.434-5.085,3.653-8.677,3.653c-4.086,0-10.275-3.243-12.727-6.195
				c-2.452-2.951,0-6.453,0-10.507c0-3.996,0.455-5.781,2.881-8.89C68.39,53.174,71.744,51.619,76.024,51.619 M76.024,50.824
				c-4.518,0-8.113,1.671-10.686,4.968c-2.587,3.317-3.049,5.341-3.049,9.379c0,1.332-0.288,2.628-0.567,3.881
				c-0.538,2.417-1.093,4.916,0.751,7.133c2.489,2.997,8.859,6.482,13.338,6.482c3.407,0,6.261-1.053,8.498-3.134
				c0.206,0.472,0.377,1.021,0.509,1.644l0.134,0.631h0.645h2.16h0.795v-0.795V70.077v-0.795h-0.795h-2.16h-0.641l-0.137,0.626
				c-0.625,2.854-1.644,4.99-3.029,6.349c-1.364,1.336-2.861,1.986-4.58,1.986c-1.286,0-2.443-0.404-3.537-1.235
				c-1.085-0.824-1.794-1.981-2.169-3.538c-0.399-1.655-0.601-3.954-0.601-6.83c0-4.036,0.546-7.016,1.623-8.86
				c1.009-1.73,2.472-2.57,4.469-2.57c1.776,0,3.272,0.654,4.574,2.002c1.335,1.381,2.316,3.483,2.918,6.245l0.137,0.627h0.64h2.14
				h0.815l-0.02-0.816L87.93,52.501l-0.019-0.775h-0.775h-2.14h-0.624l-0.149,0.605c-0.12,0.49-0.248,0.948-0.381,1.37
				C81.638,51.791,79.015,50.824,76.024,50.824L76.024,50.824z"/>
		</g>
		<g>
			<path d="M123.929,52.134v2.385c-1.401,0-2.332,0.236-2.792,0.709c-0.46,0.472-0.691,1.425-0.691,2.858V75.32
				c0,1.39,0.979,5.362,1.42,5.857c0.44,0.494,1.381,0.741,2.821,0.741v2.385l-14.475-3.031v-2.385c1.362,0,2.26-0.25,2.696-0.751
				c0.434-0.502,0.651-1.44,0.651-2.815v-8.015h-10.838v8.015c0,1.361,0.214,2.296,0.642,2.804c0.428,0.509,1.349,0.761,2.763,0.761
				v2.385H92.37v-2.385c1.388,0,2.312-0.238,2.773-0.72c0.46-0.48,0.691-1.429,0.691-2.847V58.087c0-1.375-0.218-2.313-0.652-2.815
				c-0.435-0.501-1.372-0.752-2.812-0.752v-2.385h13.756v2.385c-1.375,0-2.286,0.247-2.734,0.742
				c-0.448,0.495-0.671,1.436-0.671,2.825v6.533h10.838v-6.533c0-1.346-0.212-2.278-0.633-2.793
				c-0.422-0.516-1.327-0.774-2.714-0.774v-2.385H123.929 M124.725,51.34h-0.796h-13.717h-0.795v0.795v2.385v0.796h0.795
				c1.538,0,1.98,0.336,2.098,0.481c0.169,0.206,0.454,0.78,0.454,2.29v5.736h-9.247v-5.736c0-1.547,0.292-2.1,0.466-2.291
				c0.131-0.144,0.601-0.48,2.144-0.48h0.795v-0.796v-2.385v-0.795h-0.795H92.37h-0.794v0.795v2.385v0.796h0.794
				c1.622,0,2.087,0.333,2.211,0.478c0.171,0.198,0.458,0.758,0.458,2.293v17.233c0,1.631-0.329,2.149-0.47,2.297
				c-0.137,0.142-0.625,0.475-2.199,0.475h-0.794v0.794v2.385v0.796h0.794h13.756h0.795v-0.795v-2.385v-0.794h-0.795
				c-1.581,0-2.033-0.336-2.154-0.479c-0.17-0.202-0.455-0.768-0.455-2.293v-7.219h9.247v7.219c0,1.537-0.288,2.097-0.458,2.294
				c-0.124,0.143-0.577,0.478-2.094,0.478h-0.795v0.794v2.385v0.647l0.633,0.131l14.475,3.032l0.959,0.201v-0.979v-2.385v-0.795
				h-0.795c-1.569,0-2.065-0.308-2.213-0.458c-0.332-0.543-1.232-4.072-1.232-5.343V58.087c0-1.647,0.326-2.16,0.465-2.302
				c0.138-0.142,0.628-0.469,2.222-0.469h0.796V54.52v-2.385L124.725,51.34L124.725,51.34z"/>
		</g>
	</g>
	<g>
		<g>
			<g>
				<path d="M16.209,72.729c-0.187,2.378-0.282,3.568-0.471,5.946c-0.053,0.709,0.15,1.062,0.61,1.058
					c0.23-0.002,0.464-0.161,0.697-0.476c0.993-1.338,2.259-2.027,3.808-2.051c1.521-0.022,2.711,0.419,3.575,1.318
					c0.385,0.401,0.653,0.879,0.799,1.436c0.146,0.556,0.21,1.356,0.19,2.4c-0.026,2.054-0.039,3.081-0.065,5.136
					c-0.007,0.446,0.041,0.772,0.144,0.979c0.103,0.206,0.354,0.463,0.747,0.77c0.273,0.213,0.404,0.473,0.393,0.777
					c-0.038,1.025-1.638,1.565-4.801,1.601c-2.814,0.032-4.198-0.437-4.156-1.393c0.007-0.162,0.037-0.285,0.089-0.37
					c0.053-0.085,0.234-0.313,0.54-0.686c0.43-0.522,0.691-1.828,0.783-3.912c0.055-1.259-0.029-2.178-0.239-2.75
					c-0.284-0.777-0.83-1.168-1.646-1.16c-0.586,0.007-1.029,0.219-1.327,0.637c-0.216,0.304-0.344,0.873-0.384,1.706
					c-0.052,1.094-0.079,1.641-0.131,2.737c0.01,1.211,0.035,1.895,0.075,2.056c0.041,0.16,0.249,0.459,0.625,0.888
					c0.173,0.198,0.255,0.428,0.244,0.694c-0.051,1.069-1.501,1.616-4.354,1.622c-3.338,0.006-4.976-0.555-4.913-1.658
					c0.014-0.255,0.078-0.45,0.193-0.587c0.114-0.137,0.389-0.345,0.819-0.628c0.382-0.252,0.673-0.939,0.875-2.058
					c0.2-1.118,0.371-2.97,0.511-5.554c0.11-2.028,0.123-3.439,0.057-4.217c-0.024-0.29-0.08-0.507-0.173-0.643
					C9.231,76.21,9.05,76.071,8.781,75.93c-0.575-0.299-0.851-0.648-0.83-1.044c0.027-0.471,0.273-0.853,0.737-1.146
					c0.464-0.295,1.344-0.611,2.622-0.963c1.735-0.478,3.114-0.735,4.134-0.747C15.995,72.025,16.251,72.257,16.209,72.729z"/>
			</g>
			<g>
				<path d="M36.147,76.866c1.665-0.045,3.069,0.336,4.203,1.143c0.602,0.428,1.02,0.931,1.252,1.502
					c0.232,0.57,0.338,1.36,0.316,2.371c-0.03,0.853-0.044,1.28-0.074,2.133c-0.031,1.479,0.052,2.44,0.258,2.868
					c0.099,0.206,0.2,0.338,0.296,0.393c0.095,0.055,0.298,0.102,0.605,0.141c0.309,0.039,0.46,0.235,0.452,0.589
					c-0.009,0.458-0.204,0.941-0.587,1.446c-0.383,0.507-0.878,0.932-1.473,1.282c-0.735,0.431-1.504,0.665-2.299,0.684
					c-1.019,0.023-1.832-0.304-2.389-0.974c-0.198-0.238-0.383-0.364-0.557-0.359c-0.195,0.004-0.455,0.134-0.781,0.374
					c-0.974,0.718-2.1,1.085-3.332,1.108c-1.271,0.024-2.295-0.223-3.059-0.742c-0.502-0.341-0.893-0.794-1.173-1.354
					c-0.28-0.561-0.408-1.148-0.387-1.766c0.036-0.986,0.476-1.868,1.309-2.644c1.303-1.215,3.214-1.868,5.722-1.931
					c0.557-0.015,0.911-0.076,1.058-0.189c0.148-0.113,0.227-0.37,0.238-0.77c0.027-1.008-0.058-1.737-0.257-2.183
					c-0.199-0.447-0.537-0.665-1.016-0.654c-0.288,0.007-0.547,0.1-0.777,0.276c-0.23,0.177-0.528,0.498-0.87,0.962
					c-0.894,1.21-1.806,1.851-2.739,1.87c-0.472,0.01-0.851-0.119-1.139-0.388c-0.289-0.27-0.426-0.628-0.411-1.075
					c0.016-0.456,0.217-0.914,0.602-1.378c0.385-0.464,0.901-0.879,1.542-1.23C32.429,77.413,34.263,76.916,36.147,76.866z
					 M34.954,85.159c-0.417,0.003-0.798,0.19-1.121,0.54c-0.324,0.35-0.493,0.761-0.507,1.237c-0.014,0.457,0.086,0.824,0.301,1.099
					c0.213,0.276,0.505,0.411,0.872,0.403c0.775-0.017,1.179-0.668,1.214-1.955c0.015-0.523-0.031-0.876-0.137-1.052
					C35.469,85.251,35.257,85.156,34.954,85.159z"/>
			</g>
			<g>
				<path d="M52.489,79.292c-0.019,1.844-0.029,2.767-0.048,4.61c-0.021,2.039-0.002,3.228,0.056,3.56
					c0.059,0.333,0.297,0.588,0.711,0.755c0.354,0.143,0.594,0.28,0.714,0.411c0.12,0.131,0.179,0.321,0.177,0.57
					c-0.003,0.316-0.119,0.606-0.35,0.871c-0.23,0.265-0.54,0.452-0.913,0.57c-0.697,0.221-1.881,0.369-3.541,0.415
					c-1.872,0.049-3.187-0.059-3.936-0.311c-0.345-0.115-0.631-0.301-0.848-0.558c-0.219-0.257-0.325-0.529-0.319-0.815
					c0.004-0.229,0.068-0.408,0.191-0.535c0.123-0.128,0.391-0.282,0.799-0.465c0.38-0.17,0.619-0.625,0.719-1.352
					c0.172-1.243,0.283-3.016,0.322-5.309c0.039-2.331-0.004-3.829-0.126-4.495c-0.123-0.665-0.452-1.162-0.977-1.459
					c-0.389-0.219-0.668-0.425-0.812-0.626c-0.145-0.201-0.214-0.449-0.209-0.745c0.009-0.468,0.241-0.884,0.697-1.246
					c0.454-0.363,1.176-0.708,2.16-1.038c0.659-0.221,1.514-0.442,2.563-0.659c1.049-0.218,1.811-0.335,2.287-0.351
					c0.752-0.026,1.123,0.429,1.113,1.368c-0.003,0.306-0.065,1.019-0.164,2.117C52.6,76.28,52.523,77.866,52.489,79.292z"/>
			</g>
			<g>
				<path d="M63.794,78.686c0.714-0.025,1.069-0.036,1.783-0.059c0.297-0.01,0.511,0.028,0.641,0.115
					c0.129,0.087,0.185,0.237,0.167,0.449c-0.045,0.688-0.067,1.032-0.111,1.721c-0.017,0.346-0.07,0.567-0.155,0.662
					c-0.087,0.094-0.279,0.146-0.577,0.155c-0.068,0.002-0.229-0.006-0.477-0.014c-0.17-0.005-0.317-0.004-0.432,0
					c-0.404,0.013-0.678,0.153-0.822,0.423c-0.144,0.268-0.216,0.772-0.216,1.513c0.001,1.009,0.124,1.862,0.334,2.541
					c0.09,0.29,0.212,0.511,0.377,0.645c0.165,0.135,0.44,0.247,0.814,0.343c0.847,0.217,1.279,0.678,1.28,1.361
					c0.002,0.722-0.492,1.256-1.485,1.602c-0.994,0.347-2.628,0.551-4.899,0.617c-3.367,0.097-5.045-0.515-5.033-1.838
					c0.003-0.326,0.074-0.568,0.216-0.726c0.141-0.157,0.457-0.342,0.925-0.559c0.512-0.238,0.825-0.683,0.937-1.308
					c0.168-0.943,0.257-1.955,0.264-3.028c0.002-0.48-0.079-0.81-0.247-0.992c-0.169-0.181-0.477-0.255-0.915-0.237
					c-0.513,0.022-0.851,0.001-0.994-0.047c-0.144-0.048-0.21-0.172-0.199-0.375c0.052-0.726,0.078-1.088,0.131-1.814
					c0.022-0.297,0.074-0.483,0.155-0.558c0.082-0.074,0.311-0.127,0.685-0.159c0.354-0.03,0.534-0.209,0.535-0.535
					c0.001-0.134-0.125-0.441-0.382-0.908c-0.427-0.778-0.648-1.569-0.642-2.364c0.01-1.169,0.418-2.137,1.223-2.904
					c1.179-1.123,2.859-1.727,5.046-1.806c1.799-0.065,3.237,0.309,4.313,1.127c0.83,0.633,1.249,1.385,1.253,2.25
					c0.002,0.626-0.201,1.16-0.61,1.601c-0.41,0.443-0.922,0.674-1.534,0.694c-0.689,0.024-1.368-0.192-1.979-0.653
					c-0.152-0.114-0.516-0.495-1.089-1.1c-0.405-0.426-0.82-0.633-1.23-0.619c-0.268,0.01-0.498,0.113-0.689,0.312
					c-0.191,0.198-0.287,0.437-0.289,0.715c-0.002,0.758,0.72,1.542,2.147,2.36c0.44,0.253,0.74,0.456,0.897,0.604
					c0.158,0.148,0.293,0.382,0.424,0.634C63.39,78.638,63.554,78.694,63.794,78.686z"/>
			</g>
			<g>
				<path d="M75.558,71.14c-0.045,2.429-0.067,3.641-0.112,6.069c-0.01,0.725,0.215,1.08,0.675,1.065
					c0.23-0.007,0.455-0.174,0.669-0.5c0.913-1.383,2.138-2.111,3.687-2.158c1.522-0.048,2.739,0.389,3.659,1.298
					c0.41,0.404,0.707,0.889,0.887,1.455c0.18,0.566,0.292,1.381,0.333,2.446c0.098,2.094,0.147,3.141,0.245,5.237
					c0.02,0.455,0.087,0.787,0.203,0.997c0.116,0.209,0.383,0.469,0.795,0.779c0.286,0.215,0.433,0.48,0.44,0.789
					c0.025,1.046-1.545,1.603-4.709,1.684c-2.814,0.071-4.228-0.379-4.242-1.353c-0.002-0.165,0.021-0.29,0.068-0.378
					c0.047-0.088,0.215-0.325,0.498-0.71c0.398-0.541,0.581-1.874,0.547-4.001c-0.02-1.284-0.161-2.219-0.405-2.801
					c-0.332-0.786-0.903-1.175-1.718-1.149c-0.586,0.017-1.017,0.243-1.289,0.675c-0.198,0.315-0.291,0.897-0.281,1.747
					c0.014,1.117,0.021,1.675,0.034,2.792c0.082,1.233,0.149,1.932,0.2,2.094c0.05,0.163,0.276,0.463,0.679,0.893
					c0.185,0.198,0.282,0.431,0.285,0.7c0.015,1.091-1.405,1.674-4.257,1.755c-3.338,0.094-5.009-0.421-5.013-1.547
					c-0.001-0.26,0.05-0.46,0.157-0.603c0.106-0.142,0.369-0.365,0.781-0.665c0.366-0.268,0.616-0.979,0.75-2.124
					c0.134-1.145,0.192-3.037,0.175-5.675c-0.013-2.07-0.085-3.507-0.199-4.297c-0.042-0.294-0.11-0.514-0.212-0.651
					c-0.101-0.136-0.29-0.271-0.568-0.406c-0.593-0.287-0.891-0.633-0.893-1.038c-0.001-0.481,0.22-0.879,0.666-1.191
					c0.446-0.314,1.308-0.665,2.566-1.059c1.707-0.535,3.072-0.831,4.091-0.866C75.302,70.426,75.57,70.658,75.558,71.14z"/>
			</g>
			<g>
				<path d="M95.759,76.036c0.088,2.821,0.179,5.643,0.269,8.463c0.021,0.67,0.097,1.16,0.228,1.468
					c0.131,0.309,0.385,0.591,0.76,0.847c0.307,0.208,0.514,0.385,0.62,0.535c0.106,0.149,0.164,0.339,0.171,0.573
					c0.042,1.254-1.523,1.905-4.695,1.968c-1.709,0.033-3.074-0.068-4.071-0.322c-0.341-0.086-0.621-0.254-0.834-0.491
					c-0.215-0.238-0.325-0.511-0.332-0.821c-0.007-0.261,0.042-0.466,0.145-0.613c0.103-0.148,0.37-0.387,0.795-0.717
					c0.294-0.229,0.499-0.598,0.612-1.105c0.113-0.506,0.156-1.259,0.131-2.257c-0.009-0.32-0.046-0.918-0.111-1.794
					c-0.066-0.876-0.108-1.388-0.132-1.531c-0.065-0.393-0.345-0.695-0.83-0.894c-0.602-0.247-0.91-0.625-0.921-1.139
					c-0.015-0.61,0.362-1.076,1.13-1.398c1.062-0.444,2.203-0.829,3.419-1.15c1.217-0.323,2.158-0.491,2.829-0.507
					C95.465,75.139,95.74,75.433,95.759,76.036z M92.73,69.73c0.827-0.022,1.49,0.118,1.983,0.42
					c0.496,0.304,0.752,0.723,0.769,1.257c0.024,0.748-0.325,1.349-1.046,1.805c-1.142,0.718-2.544,1.098-4.196,1.142
					c-0.698,0.018-1.257-0.11-1.674-0.362c-0.553-0.336-0.851-0.809-0.866-1.429c-0.019-0.833,0.553-1.503,1.71-2.013
					C90.586,70.032,91.691,69.758,92.73,69.73z"/>
			</g>
			<g>
				<path d="M106.539,77.795c0.079,1.877,0.119,2.817,0.199,4.693c0.088,2.076,0.17,3.286,0.247,3.626
					c0.077,0.34,0.329,0.603,0.752,0.782c0.362,0.153,0.61,0.296,0.737,0.431c0.126,0.137,0.195,0.33,0.206,0.584
					c0.013,0.322-0.085,0.616-0.302,0.882c-0.218,0.264-0.517,0.449-0.886,0.563c-0.685,0.211-1.864,0.34-3.522,0.359
					c-1.874,0.022-3.196-0.104-3.96-0.369c-0.353-0.122-0.647-0.314-0.879-0.577c-0.232-0.264-0.354-0.539-0.365-0.832
					c-0.007-0.233,0.046-0.415,0.164-0.544c0.116-0.128,0.377-0.282,0.775-0.465c0.371-0.17,0.587-0.628,0.648-1.367
					c0.106-1.264,0.12-3.067,0.037-5.401c-0.086-2.374-0.209-3.899-0.368-4.577c-0.158-0.678-0.513-1.188-1.058-1.496
					c-0.402-0.228-0.694-0.442-0.848-0.647c-0.155-0.206-0.237-0.458-0.247-0.76c-0.017-0.476,0.193-0.896,0.63-1.26
					c0.434-0.365,1.14-0.708,2.108-1.032c0.648-0.217,1.494-0.43,2.534-0.636c1.038-0.204,1.797-0.311,2.272-0.319
					c0.753-0.013,1.147,0.458,1.188,1.414c0.013,0.312-0.012,1.037-0.051,2.151C106.489,74.73,106.497,76.342,106.539,77.795z"/>
			</g>
			<g>
				<path d="M117.302,77.707c0.097,1.885,0.148,2.826,0.247,4.711c0.108,2.084,0.205,3.296,0.286,3.638
					c0.08,0.342,0.334,0.61,0.759,0.793c0.365,0.159,0.613,0.305,0.742,0.443c0.128,0.137,0.201,0.333,0.214,0.587
					c0.017,0.323-0.08,0.616-0.294,0.879c-0.212,0.264-0.511,0.447-0.879,0.556c-0.682,0.203-1.862,0.319-3.52,0.322
					c-1.873,0.004-3.197-0.136-3.964-0.409c-0.354-0.126-0.65-0.32-0.885-0.586c-0.235-0.267-0.359-0.547-0.373-0.841
					c-0.01-0.233,0.042-0.415,0.158-0.542c0.114-0.128,0.374-0.281,0.77-0.459c0.368-0.168,0.58-0.626,0.634-1.367
					c0.093-1.268,0.088-3.077-0.02-5.419c-0.111-2.382-0.251-3.915-0.417-4.596c-0.166-0.682-0.527-1.196-1.073-1.511
					c-0.403-0.232-0.697-0.448-0.853-0.656c-0.157-0.207-0.243-0.463-0.256-0.765c-0.022-0.478,0.183-0.899,0.615-1.26
					c0.432-0.362,1.134-0.699,2.098-1.014c0.646-0.211,1.491-0.417,2.527-0.61c1.037-0.195,1.794-0.294,2.27-0.296
					c0.75-0.005,1.152,0.474,1.202,1.433c0.017,0.313-0.001,1.039-0.028,2.157C117.219,74.632,117.244,76.249,117.302,77.707z"/>
			</g>
		</g>
	</g>
	<g>
		<path d="M175.139,67.404c0-1.167,0-2.259,0-3.388c-0.37,0-0.697,0-1.098,0c-0.006-0.021-0.013-0.042-0.02-0.062
			c0-1.136,0-2.238,0-3.375c-0.412,0-0.743,0-1.153,0c0-0.778,0-1.52,0-2.295c-0.414,0-0.747,0-1.114,0c0-0.371,0-0.703,0-1.114
			c-0.399,0-0.759,0-1.155,0c0-0.411,0-0.743,0-1.154c-0.399,0-0.758,0-1.155,0c0-0.413,0-0.746,0-1.087
			c-0.398-0.025-0.758-0.048-1.153-0.073c0-0.409,0-0.743,0-1.109c-0.372,0-0.703,0-1.115,0c0-0.4,0-0.758,0-1.154
			c-0.792,0-1.504,0-2.245,0c-0.019-0.399-0.036-0.759-0.054-1.154c-0.789,0-1.501,0-2.218,0c-0.027-0.397-0.053-0.755-0.081-1.15
			c-1.167,0-2.26,0-3.389,0c0-0.374,0-0.706,0-1.05c-2.3,0-4.561,0-6.86,0c0,0.38,0,0.711,0,1.122c-1.159,0-2.28,0-3.436,0
			c0,0.412,0,0.744,0,1.113c-0.752,0-1.464,0-2.255,0c0,0.399,0,0.758,0,1.154c-0.792,0-1.504,0-2.296,0c0,0.399,0,0.758,0,1.154
			c-0.413,0-0.745,0-1.098,0c-0.022,0.4-0.041,0.76-0.062,1.155c-0.408,0-0.741,0-1.109,0c0,0.371,0,0.703,0,1.114
			c-0.399,0-0.758,0-1.154,0c0,0.412,0,0.743,0,1.155c-0.396,0-0.757,0-1.155,0c0,0.413,0,0.746,0,1.089
			c-0.397,0.025-0.758,0.047-1.153,0.071c0,0.788,0,1.5,0,2.25c-0.373,0-0.703,0-1.115,0c0,1.038,0,2.048,0,3.078
			c-0.04,0.12-0.078,0.238-0.115,0.359c-0.359,0-0.667,0-1.038,0c0,1.159,0,2.28,0,3.436c-0.413,0-0.745,0-1.124,0
			c0.035,1.539-0.042,3.039,0.051,4.576c0.408,0,0.741,0,1.107,0c0,1.133,0,2.226,0,3.398c0.353,0,0.674,0,1.017,0
			c0.044,0.143,0.09,0.283,0.137,0.423c0,1.014,0,1.984,0,3.013c0.395,0,0.757,0,1.154,0c0,0.792,0,1.505,0,2.226
			c0.397,0.026,0.757,0.05,1.152,0.076c0,0.408,0,0.741,0,1.107c0.373,0,0.705,0,1.117,0c0,0.4,0,0.758,0,1.155
			c0.412,0,0.744,0,1.099,0c0.02,0.4,0.039,0.759,0.06,1.155c0.408,0,0.741,0,1.109,0c0,0.371,0,0.703,0,1.115
			c0.394,0,0.758,0,1.155,0c0,0.411,0,0.743,0,1.154c0.778,0,1.52,0,2.296,0c0,0.412,0,0.745,0,1.154c0.779,0,1.52,0,2.296,0
			c0,0.414,0,0.747,0,1.113c1.132,0,2.224,0,3.396,0c0,0.399,0,0.758,0,1.107c2.313,0,4.547,0,6.859,0c0-0.387,0-0.746,0-1.141
			c1.173,0,2.266,0,3.396,0c0-0.369,0-0.701,0-1.154c0.834,0,1.546,0,2.296,0c0-0.371,0-0.703,0-1.114c0.778,0,1.52,0,2.296,0
			c0-0.411,0-0.743,0-1.154c0.396,0,0.757,0,1.155,0c0-0.413,0-0.746,0-1.086c0.397-0.025,0.758-0.049,1.153-0.076
			c0-0.408,0-0.74,0-1.107c0.373,0,0.705,0,1.116,0c0-0.4,0-0.758,0-1.155c0.412,0,0.744,0,1.101,0
			c0.019-0.399,0.038-0.759,0.058-1.155c0.409,0,0.741,0,1.11,0c0-0.752,0-1.464,0-2.255c0.399,0,0.758,0,1.153,0
			c0-1.173,0-2.265,0-3.437c0.399,0,0.758,0,1.153,0c0-1.173,0-2.265,0-3.378c0.399-0.022,0.76-0.042,1.078-0.059
			c0-1.552,0-3.024,0-4.499C175.891,67.461,175.533,67.434,175.139,67.404z"/>
	</g>
	<g>
		<path fill="#FFFFFF" d="M153.963,62.74c0-0.379,0-0.732,0-1.098c-0.059,0-0.113,0-0.178,0c-0.001-0.007-0.001-0.013-0.003-0.02
			c0-0.368,0-0.726,0-1.094c-0.067,0-0.12,0-0.187,0c0-0.253,0-0.493,0-0.745c-0.067,0-0.121,0-0.181,0c0-0.12,0-0.228,0-0.361
			c-0.065,0-0.123,0-0.187,0c0-0.134,0-0.241,0-0.374c-0.065,0-0.123,0-0.187,0c0-0.134,0-0.242,0-0.353
			c-0.065-0.008-0.123-0.016-0.187-0.024c0-0.133,0-0.241,0-0.359c-0.061,0-0.114,0-0.181,0c0-0.13,0-0.247,0-0.374
			c-0.128,0-0.244,0-0.364,0c-0.003-0.129-0.006-0.247-0.009-0.374c-0.128,0-0.244,0-0.36,0c-0.004-0.129-0.009-0.246-0.013-0.373
			c-0.189,0-0.367,0-0.55,0c0-0.122,0-0.229,0-0.34c-0.373,0-0.74,0-1.113,0c0,0.123,0,0.231,0,0.364c-0.188,0-0.371,0-0.558,0
			c0,0.134,0,0.241,0,0.361c-0.122,0-0.238,0-0.366,0c0,0.129,0,0.246,0,0.374c-0.128,0-0.244,0-0.372,0c0,0.129,0,0.246,0,0.374
			c-0.068,0-0.122,0-0.178,0c-0.004,0.129-0.007,0.247-0.01,0.374c-0.067,0-0.12,0-0.18,0c0,0.12,0,0.228,0,0.361
			c-0.065,0-0.123,0-0.188,0c0,0.134,0,0.241,0,0.374c-0.065,0-0.123,0-0.187,0c0,0.134,0,0.242,0,0.354
			c-0.065,0.008-0.123,0.016-0.187,0.023c0,0.256,0,0.486,0,0.729c-0.06,0-0.114,0-0.18,0c0,0.336,0,0.664,0,0.998
			c-0.007,0.039-0.013,0.077-0.019,0.117c-0.059,0-0.108,0-0.169,0c0,0.376,0,0.739,0,1.114c-0.067,0-0.121,0-0.182,0
			c0.006,0.499-0.007,0.986,0.008,1.484c0.066,0,0.12,0,0.18,0c0,0.368,0,0.722,0,1.101c0.057,0,0.11,0,0.165,0
			c0.007,0.046,0.015,0.092,0.022,0.138c0,0.329,0,0.643,0,0.977c0.065,0,0.123,0,0.187,0c0,0.257,0,0.488,0,0.722
			c0.065,0.009,0.123,0.016,0.187,0.025c0,0.133,0,0.24,0,0.359c0.061,0,0.114,0,0.181,0c0,0.13,0,0.247,0,0.375
			c0.067,0,0.121,0,0.178,0c0.004,0.129,0.007,0.247,0.01,0.374c0.067,0,0.12,0,0.18,0c0,0.12,0,0.228,0,0.361
			c0.064,0,0.123,0,0.187,0c0,0.134,0,0.241,0,0.374c0.126,0,0.247,0,0.373,0c0,0.134,0,0.241,0,0.375c0.126,0,0.247,0,0.372,0
			c0,0.134,0,0.241,0,0.36c0.184,0,0.361,0,0.552,0c0,0.129,0,0.246,0,0.359c0.375,0,0.737,0,1.113,0c0-0.126,0-0.241,0-0.37
			c0.19,0,0.368,0,0.551,0c0-0.12,0-0.228,0-0.374c0.136,0,0.251,0,0.373,0c0-0.12,0-0.228,0-0.361c0.126,0,0.247,0,0.373,0
			c0-0.134,0-0.241,0-0.374c0.064,0,0.123,0,0.187,0c0-0.134,0-0.242,0-0.353c0.065-0.008,0.123-0.016,0.187-0.024
			c0-0.133,0-0.241,0-0.359c0.061,0,0.114,0,0.181,0c0-0.129,0-0.245,0-0.374c0.067,0,0.12,0,0.178,0
			c0.003-0.129,0.007-0.246,0.01-0.374c0.067,0,0.12,0,0.18,0c0-0.244,0-0.475,0-0.731c0.064,0,0.123,0,0.187,0
			c0-0.381,0-0.734,0-1.115c0.065,0,0.123,0,0.187,0c0-0.38,0-0.734,0-1.096c0.065-0.007,0.123-0.013,0.175-0.019
			c0-0.504,0-0.981,0-1.459C154.085,62.758,154.027,62.749,153.963,62.74z"/>
	</g>
	<g>
		<path fill="#FFFFFF" d="M163.683,62.74c0-0.379,0-0.732,0-1.098c-0.059,0-0.113,0-0.177,0c-0.001-0.007-0.002-0.013-0.004-0.02
			c0-0.368,0-0.726,0-1.094c-0.067,0-0.12,0-0.187,0c0-0.253,0-0.493,0-0.745c-0.067,0-0.121,0-0.18,0c0-0.12,0-0.228,0-0.361
			c-0.065,0-0.123,0-0.188,0c0-0.134,0-0.241,0-0.374c-0.064,0-0.123,0-0.187,0c0-0.134,0-0.242,0-0.353
			c-0.065-0.008-0.123-0.016-0.187-0.024c0-0.133,0-0.241,0-0.359c-0.06,0-0.114,0-0.181,0c0-0.13,0-0.247,0-0.374
			c-0.128,0-0.244,0-0.364,0c-0.003-0.129-0.006-0.247-0.009-0.374c-0.128,0-0.244,0-0.359,0c-0.005-0.129-0.009-0.246-0.013-0.373
			c-0.19,0-0.367,0-0.551,0c0-0.122,0-0.229,0-0.34c-0.373,0-0.74,0-1.113,0c0,0.123,0,0.231,0,0.364c-0.188,0-0.37,0-0.558,0
			c0,0.134,0,0.241,0,0.361c-0.122,0-0.238,0-0.365,0c0,0.129,0,0.246,0,0.374c-0.129,0-0.244,0-0.373,0c0,0.129,0,0.246,0,0.374
			c-0.067,0-0.121,0-0.178,0c-0.004,0.129-0.007,0.247-0.01,0.374c-0.066,0-0.12,0-0.18,0c0,0.12,0,0.228,0,0.361
			c-0.065,0-0.123,0-0.187,0c0,0.134,0,0.241,0,0.374c-0.065,0-0.123,0-0.188,0c0,0.134,0,0.242,0,0.354
			c-0.065,0.008-0.123,0.016-0.187,0.023c0,0.256,0,0.486,0,0.729c-0.06,0-0.114,0-0.18,0c0,0.336,0,0.664,0,0.998
			c-0.007,0.039-0.013,0.077-0.019,0.117c-0.058,0-0.108,0-0.169,0c0,0.376,0,0.739,0,1.114c-0.068,0-0.121,0-0.183,0
			c0.006,0.499-0.007,0.986,0.009,1.484c0.066,0,0.12,0,0.18,0c0,0.368,0,0.722,0,1.101c0.056,0,0.108,0,0.164,0
			c0.007,0.046,0.016,0.092,0.023,0.138c0,0.329,0,0.643,0,0.977c0.064,0,0.123,0,0.187,0c0,0.257,0,0.488,0,0.722
			c0.064,0.009,0.123,0.016,0.187,0.025c0,0.133,0,0.24,0,0.359c0.06,0,0.114,0,0.18,0c0,0.13,0,0.247,0,0.375
			c0.068,0,0.121,0,0.179,0c0.003,0.129,0.006,0.247,0.01,0.374c0.066,0,0.12,0,0.18,0c0,0.12,0,0.228,0,0.361
			c0.065,0,0.123,0,0.188,0c0,0.134,0,0.241,0,0.374c0.126,0,0.247,0,0.372,0c0,0.134,0,0.241,0,0.375c0.127,0,0.247,0,0.373,0
			c0,0.134,0,0.241,0,0.36c0.183,0,0.36,0,0.551,0c0,0.129,0,0.246,0,0.359c0.376,0,0.738,0,1.113,0c0-0.126,0-0.241,0-0.37
			c0.191,0,0.368,0,0.551,0c0-0.12,0-0.228,0-0.374c0.136,0,0.251,0,0.373,0c0-0.12,0-0.228,0-0.361c0.126,0,0.247,0,0.373,0
			c0-0.134,0-0.241,0-0.374c0.065,0,0.123,0,0.187,0c0-0.134,0-0.242,0-0.353c0.065-0.008,0.123-0.016,0.187-0.024
			c0-0.133,0-0.241,0-0.359c0.061,0,0.114,0,0.181,0c0-0.129,0-0.245,0-0.374c0.067,0,0.12,0,0.178,0
			c0.004-0.129,0.007-0.246,0.01-0.374c0.066,0,0.12,0,0.18,0c0-0.244,0-0.475,0-0.731c0.065,0,0.123,0,0.187,0
			c0-0.381,0-0.734,0-1.115c0.065,0,0.123,0,0.187,0c0-0.38,0-0.734,0-1.096c0.065-0.007,0.123-0.013,0.175-0.019
			c0-0.504,0-0.981,0-1.459C163.805,62.758,163.747,62.749,163.683,62.74z"/>
	</g>
	<g>
		<path fill="#FFFFFF" d="M171.808,71.391h-5.56v3.11h1.668v0.748H167v1.108c-0.325,0.026-0.619,0.049-0.945,0.076v1.085h-0.947
			v1.155h-1.884v1.114h-1.885v1.153h-2.788v1.141h-5.629v-1.107h-2.788V79.86h-1.884v-1.153h-1.884v-1.155h-0.947v-1.114h-0.911
			c-0.016-0.395-0.033-0.756-0.049-1.155h-0.902v-0.783h1.7v-3.11h-5.559v3.11h1.997v1.534c0.326,0.027,0.621,0.051,0.945,0.077
			v1.107h0.916v1.155h0.902c0.016,0.4,0.033,0.759,0.049,1.155h0.911v1.114h0.947v1.155h1.884v1.154h1.884v1.113h2.788v1.107h5.629
			v-1.142h2.789v-1.153h1.884v-1.114h1.884v-1.154h0.947v-1.086c0.326-0.026,0.621-0.049,0.945-0.076V78.34h0.916v-1.155h0.903
			c0.016-0.399,0.031-0.759,0.047-1.155h0.911V74.5h2.03L171.808,71.391L171.808,71.391z"/>
	</g>
	<g>
		<g>
			<path fill="#597ABB" d="M176.527,90.515h-41.548V48.968h41.548V90.515z M135.268,90.225h40.969V49.257h-40.969V90.225z"/>
			<path d="M176.898,90.886h-42.291v-42.29h42.291V90.886z M135.64,89.854h40.225V49.628H135.64V89.854z"/>
		</g>
	</g>
	<g>
		<g>
			<g>
				<g>
					<rect x="134.036" y="48.143" fill="#FFFFFF" width="2.176" height="2.189"/>
				</g>
				<g>
					<path d="M135.84,48.515v1.446h-1.433v-1.446H135.84 M136.583,47.772h-0.743h-1.433h-0.743v0.743v1.446v0.743h0.743h1.433h0.743
						v-0.743v-1.446V47.772L136.583,47.772z"/>
				</g>
			</g>
		</g>
	</g>
	<g>
		<g>
			<g>
				<rect x="175.665" y="48.388" fill="#FFFFFF" width="1.434" height="1.446"/>
			</g>
		</g>
		<g>
			<g>
				<path fill="#597ABB" d="M176.954,48.534v1.156h-1.145v-1.156H176.954 M177.244,48.244h-1.723v1.735h1.723V48.244L177.244,48.244
					z"/>
			</g>
		</g>
	</g>
	<g>
		<g>
			<g>
				<rect x="134.407" y="89.647" fill="#FFFFFF" width="1.433" height="1.446"/>
			</g>
		</g>
		<g>
			<g>
				<path fill="#597ABB" d="M135.696,89.791v1.157h-1.145v-1.157H135.696 M135.985,89.502h-1.723v1.736h1.723V89.502L135.985,89.502
					z"/>
			</g>
		</g>
	</g>
	<g>
		<g>
			<g>
				<rect x="175.665" y="89.647" fill="#FFFFFF" width="1.434" height="1.446"/>
			</g>
		</g>
		<g>
			<g>
				<path fill="#597ABB" d="M176.954,89.791v1.157h-1.145v-1.157H176.954 M177.244,89.502h-1.723v1.736h1.723V89.502L177.244,89.502
					z"/>
			</g>
		</g>
	</g>
	<g>
		<g>
			<g>
				<rect x="134.407" y="69.018" fill="#FFFFFF" width="1.433" height="1.446"/>
			</g>
		</g>
		<g>
			<g>
				<path fill="#597ABB" d="M135.696,69.162v1.157h-1.145v-1.157H135.696 M135.985,68.873h-1.723v1.735h1.723V68.873L135.985,68.873
					z"/>
			</g>
		</g>
	</g>
	<g>
		<g>
			<g>
				<rect x="175.665" y="69.018" fill="#FFFFFF" width="1.434" height="1.446"/>
			</g>
		</g>
		<g>
			<g>
				<path fill="#597ABB" d="M176.954,69.162v1.157h-1.145v-1.157H176.954 M177.244,68.873h-1.723v1.735h1.723V68.873L177.244,68.873
					z"/>
			</g>
		</g>
	</g>
	<g>
		<g>
			<g>
				<rect x="155.03" y="89.653" fill="#FFFFFF" width="1.446" height="1.434"/>
			</g>
		</g>
		<g>
			<g>
				<path fill="#597ABB" d="M156.331,89.797v1.145h-1.158v-1.145H156.331 M156.62,89.508h-1.735v1.723h1.735V89.508L156.62,89.508z"
					/>
			</g>
		</g>
	</g>
	<g>
		<g>
			<rect x="155.03" y="48.395" fill="#FFFFFF" width="1.446" height="1.434"/>
		</g>
	</g>
	<g>
		<g>
			<path fill="#597ABB" d="M156.331,48.539v1.144h-1.158v-1.144H156.331 M156.62,48.25h-1.735v1.723h1.735V48.25L156.62,48.25z"/>
		</g>
	</g>
	<g>
		<rect x="147.452" y="58.581" fill="#FFFFFF" width="3.984" height="5.087"/>
	</g>
	<g>
		<rect x="146.284" y="61.331" fill="#FFFFFF" width="3.984" height="5.087"/>
	</g>
	<g>
		<rect x="150.962" y="60.956" fill="#FFFFFF" width="3.984" height="5.087"/>
	</g>
	<g>
		<rect x="146.977" y="63.94" fill="#FFFFFF" width="3.984" height="5.087"/>
	</g>
	<g>
		<rect x="150.2" y="63.94" fill="#FFFFFF" width="3.984" height="5.087"/>
	</g>
	<g>
		<rect x="150.2" y="58.581" fill="#FFFFFF" width="3.984" height="5.087"/>
	</g>
	<g>
		<rect x="148.969" y="69.056" fill="#FFFFFF" width="3.704" height="1.407"/>
	</g>
	<g>
		<rect x="148.969" y="56.869" fill="#FFFFFF" width="3.704" height="1.407"/>
	</g>
	<g>
		<rect x="158.02" y="58.581" fill="#FFFFFF" width="3.471" height="5.087"/>
	</g>
	<g>
		<rect x="158.02" y="63.94" fill="#FFFFFF" width="3.471" height="5.087"/>
	</g>
	<g>
		<rect x="157.003" y="61.331" fill="#FFFFFF" width="3.471" height="5.087"/>
	</g>
	<g>
		<rect x="157.606" y="58.276" fill="#FFFFFF" width="3.472" height="5.087"/>
	</g>
	<g>
		<rect x="160.414" y="58.413" fill="#FFFFFF" width="3.471" height="5.087"/>
	</g>
	<g>
		<rect x="160.414" y="63.94" fill="#FFFFFF" width="3.471" height="5.087"/>
	</g>
	<g>
		<rect x="161.432" y="61.19" fill="#FFFFFF" width="3.471" height="5.087"/>
	</g>
	<g>
		<rect x="157.606" y="63.096" fill="#FFFFFF" width="3.472" height="5.087"/>
	</g>
	<g>
		<rect x="159.341" y="69.056" fill="#FFFFFF" width="3.227" height="1.407"/>
	</g>
	<g>
		<rect x="159.341" y="56.869" fill="#FFFFFF" width="3.227" height="1.407"/>
	</g>
	<g>
		<g>
			<g>
				<g>
					<rect x="154.801" y="48.143" fill="#FFFFFF" width="2.176" height="2.189"/>
				</g>
				<g>
					<path d="M156.606,48.515v1.446h-1.433v-1.446H156.606 M157.349,47.772h-0.743h-1.433h-0.743v0.743v1.446v0.743h0.743h1.433
						h0.743v-0.743v-1.446V47.772L157.349,47.772z"/>
				</g>
			</g>
		</g>
	</g>
	<g>
		<g>
			<g>
				<g>
					<rect x="175.453" y="48.143" fill="#FFFFFF" width="2.176" height="2.189"/>
				</g>
				<g>
					<path d="M177.257,48.515v1.446h-1.433v-1.446H177.257 M178,47.772h-0.743h-1.433h-0.743v0.743v1.446v0.743h0.743h1.433H178
						v-0.743v-1.446V47.772L178,47.772z"/>
				</g>
			</g>
		</g>
	</g>
	<g>
		<g>
			<g>
				<g>
					<rect x="134.036" y="89.42" fill="#FFFFFF" width="2.176" height="2.189"/>
				</g>
				<g>
					<path d="M135.84,89.791v1.446h-1.433v-1.446H135.84 M136.583,89.049h-0.743h-1.433h-0.743v0.743v1.446v0.743h0.743h1.433h0.743
						v-0.743v-1.446V89.049L136.583,89.049z"/>
				</g>
			</g>
		</g>
	</g>
	<g>
		<g>
			<g>
				<g>
					<rect x="154.801" y="89.42" fill="#FFFFFF" width="2.176" height="2.189"/>
				</g>
				<g>
					<path d="M156.606,89.791v1.446h-1.433v-1.446H156.606 M157.349,89.049h-0.743h-1.433h-0.743v0.743v1.446v0.743h0.743h1.433
						h0.743v-0.743v-1.446V89.049L157.349,89.049z"/>
				</g>
			</g>
		</g>
	</g>
	<g>
		<g>
			<g>
				<g>
					<rect x="175.453" y="89.42" fill="#FFFFFF" width="2.176" height="2.189"/>
				</g>
				<g>
					<path d="M177.257,89.791v1.446h-1.433v-1.446H177.257 M178,89.049h-0.743h-1.433h-0.743v0.743v1.446v0.743h0.743h1.433H178
						v-0.743v-1.446V89.049L178,89.049z"/>
				</g>
			</g>
		</g>
	</g>
	<g>
		<g>
			<g>
				<g>
					<rect x="134.036" y="68.633" fill="#FFFFFF" width="2.176" height="2.189"/>
				</g>
				<g>
					<path d="M135.84,69.004v1.446h-1.433v-1.446H135.84 M136.583,68.261h-0.743h-1.433h-0.743v0.743v1.446v0.743h0.743h1.433h0.743
						V70.45v-1.446V68.261L136.583,68.261z"/>
				</g>
			</g>
		</g>
	</g>
	<g>
		<g>
			<g>
				<g>
					<rect x="175.453" y="68.633" fill="#FFFFFF" width="2.176" height="2.189"/>
				</g>
				<g>
					<path d="M177.257,69.004v1.446h-1.433v-1.446H177.257 M178,68.261h-0.743h-1.433h-0.743v0.743v1.446v0.743h0.743h1.433H178
						V70.45v-1.446V68.261L178,68.261z"/>
				</g>
			</g>
		</g>
	</g>
</g>
</svg>
