<?xml version="1.0" encoding="utf-8"?>
<!-- Generator: Adobe Illustrator 17.0.0, SVG Export Plug-In . SVG Version: 6.00 Build 0)  -->
<!DOCTYPE svg PUBLIC "-//W3C//DTD SVG 1.1//EN" "http://www.w3.org/Graphics/SVG/1.1/DTD/svg11.dtd">
<svg version="1.1" id="Layer_1" xmlns="http://www.w3.org/2000/svg" xmlns:xlink="http://www.w3.org/1999/xlink" x="0px" y="0px"
	 width="180px" height="140px" viewBox="0 0 180 140" enable-background="new 0 0 180 140" xml:space="preserve">
<g id="_x37_gUUNY_1_">
</g>
<g>
	<g>
		<path d="M26.968,123.991c-0.276,0-0.553-0.104-0.765-0.308c-0.392-0.378-0.448-0.987-0.132-1.432l26.214-36.756L23.17,88.268
			c-0.504,0.048-0.979-0.255-1.145-0.734c-0.166-0.479,0.017-1.01,0.443-1.286l21.925-14.155L15.753,60.58
			c-0.474-0.19-0.754-0.679-0.679-1.183c0.075-0.504,0.485-0.891,0.993-0.935L52.581,55.3L40.388,30.631
			c-0.224-0.454-0.11-1.001,0.275-1.327c0.387-0.327,0.945-0.349,1.356-0.053l22.527,16.254l7.91-21.978
			c0.148-0.414,0.53-0.7,0.969-0.726c0.44-0.029,0.853,0.212,1.05,0.605l8.093,16.133l13.385-22.983
			c0.197-0.339,0.559-0.547,0.95-0.547c0.002,0,0.004,0,0.005,0c0.394,0.001,0.757,0.213,0.951,0.554l10.778,18.841l17.609-13.594
			c0.338-0.26,0.794-0.303,1.175-0.108c0.38,0.194,0.612,0.591,0.597,1.017l-0.513,15.103l18.493-16.435
			c0.375-0.333,0.929-0.371,1.345-0.091c0.417,0.28,0.591,0.807,0.424,1.28l-9.504,26.91l25.847,6.605
			c0.477,0.122,0.815,0.546,0.828,1.039c0.012,0.493-0.304,0.934-0.773,1.079l-27.938,8.661l24.663,18.218
			c0.379,0.279,0.537,0.767,0.396,1.215c-0.141,0.448-0.551,0.758-1.021,0.77l-32.604,0.858l9.241,21.841
			c0.081,0.153,0.126,0.328,0.126,0.513c0,0.608-0.492,1.101-1.101,1.101c-0.001-0.001-0.002-0.001-0.004,0
			c-0.243,0-0.485-0.08-0.686-0.24L115.647,95.53l-7.83,17.897c-0.159,0.363-0.5,0.612-0.894,0.654
			c-0.393,0.04-0.779-0.133-1.01-0.455l-9.581-13.414L81.91,121.703c-0.259,0.384-0.729,0.566-1.18,0.455
			c-0.45-0.112-0.782-0.494-0.829-0.955l-2.192-21.1l-10.73,8.637c-0.315,0.252-0.74,0.313-1.112,0.159
			c-0.372-0.154-0.63-0.5-0.672-0.9l-1.293-12.152l-36.262,27.915C27.44,123.916,27.205,123.991,26.968,123.991z M78.594,96.878
			c0.144,0,0.287,0.028,0.424,0.085c0.371,0.155,0.629,0.501,0.671,0.902l2.087,20.087l13.613-20.287
			c0.201-0.3,0.537-0.482,0.897-0.487c0.006,0,0.012,0,0.017,0c0.355,0,0.688,0.171,0.896,0.461l9.378,13.13l7.627-17.434
			c0.137-0.313,0.412-0.545,0.744-0.627c0.331-0.082,0.683-0.005,0.95,0.208l17.323,13.808l-8.218-19.422
			c-0.142-0.335-0.108-0.719,0.089-1.024c0.196-0.306,0.532-0.495,0.896-0.505l31.018-0.816l-23.84-17.609
			c-0.334-0.246-0.501-0.66-0.431-1.069c0.068-0.41,0.362-0.745,0.759-0.868l26.295-8.151l-23.24-5.939
			c-0.299-0.076-0.553-0.275-0.697-0.547c-0.146-0.273-0.171-0.594-0.067-0.885l8.483-24.02l-17.221,15.304
			c-0.329,0.292-0.801,0.361-1.198,0.173c-0.398-0.187-0.648-0.594-0.632-1.034l0.521-15.33l-16.758,12.937
			c-0.251,0.195-0.575,0.271-0.888,0.208s-0.582-0.256-0.74-0.533L96.895,19.311L83.448,42.403c-0.203,0.35-0.582,0.563-0.985,0.546
			c-0.404-0.012-0.769-0.246-0.95-0.607l-7.854-15.656l-7.535,20.939c-0.118,0.325-0.381,0.577-0.711,0.679
			c-0.329,0.102-0.689,0.043-0.97-0.159L44.327,33.63l10.941,22.139c0.162,0.326,0.151,0.711-0.027,1.028
			c-0.178,0.316-0.502,0.525-0.863,0.557l-33.526,2.904l26.338,10.586c0.381,0.153,0.646,0.507,0.685,0.917
			c0.039,0.409-0.153,0.806-0.499,1.029l-19.92,12.859l27.023-2.574c0.428-0.041,0.844,0.173,1.058,0.545
			c0.216,0.374,0.193,0.838-0.057,1.189l-23.316,32.693l31.953-24.6c0.315-0.243,0.738-0.297,1.104-0.14
			c0.367,0.157,0.619,0.5,0.661,0.896l1.287,12.102l10.736-8.641C78.103,96.961,78.347,96.878,78.594,96.878z"/>
	</g>
	<g>
		<g>
			<g>
				<path d="M77.888,55.335c-2.076,4.254-4.288,8.39-6.564,12.484c2.364-0.723,4.732-1.424,7.104-2.107
					c0.047,0.471,0.069,0.706,0.117,1.177c-3.572,1.02-7.136,2.073-10.694,3.157c-0.007-0.206-0.011-0.309-0.02-0.515
					c2.296-3.891,4.493-7.867,6.59-11.924c-2.521,0.87-3.792,1.317-6.348,2.238c-0.008-0.412-0.012-0.618-0.019-1.029
					C71.325,57.629,74.604,56.469,77.888,55.335z"/>
			</g>
			<g>
				<path d="M84.265,52.944c2.139,3.602,4.319,7.155,6.542,10.68c-1.059,0.266-1.59,0.401-2.653,0.675
					c-0.732-1.16-1.092-1.736-1.794-2.878c-1.622,0.45-2.438,0.681-4.073,1.15c-0.402,1.428-0.607,2.142-1.023,3.562
					c-0.72,0.199-1.081,0.298-1.803,0.5c1.339-4.41,2.588-8.859,3.754-13.345C83.636,53.149,83.845,53.081,84.265,52.944z
					 M82.636,61.347c1.26-0.368,1.888-0.548,3.139-0.903c-0.824-1.343-1.227-2.008-2.013-3.326
					C83.322,58.814,83.097,59.659,82.636,61.347z"/>
			</g>
			<g>
				<path d="M93.277,56.69c0.138,0.779,0.361,1.441,0.672,1.989c0.31,0.547,0.671,0.983,1.084,1.309
					c0.411,0.325,0.859,0.541,1.338,0.646c0.479,0.105,0.954,0.102,1.423-0.01c0.362-0.086,0.685-0.241,0.964-0.465
					c0.28-0.224,0.529-0.493,0.745-0.809c0.218-0.316,0.408-0.668,0.57-1.058c0.161-0.389,0.308-0.795,0.441-1.219
					c0.493,0.272,0.742,0.409,1.24,0.685c-0.125,0.496-0.302,0.984-0.528,1.465c-0.229,0.481-0.508,0.925-0.843,1.33
					c-0.332,0.406-0.716,0.755-1.153,1.049c-0.437,0.294-0.923,0.502-1.453,0.625c-0.897,0.208-1.757,0.249-2.57,0.126
					c-0.814-0.122-1.548-0.392-2.195-0.806c-0.646-0.417-1.187-0.966-1.621-1.655c-0.437-0.688-0.726-1.499-0.877-2.438
					c-0.1-0.604-0.128-1.195-0.087-1.776c0.041-0.581,0.142-1.138,0.302-1.671c0.162-0.533,0.379-1.037,0.656-1.509
					c0.275-0.474,0.602-0.906,0.976-1.296c0.375-0.39,0.797-0.733,1.267-1.024c0.471-0.29,0.982-0.52,1.533-0.685
					c0.559-0.167,1.081-0.238,1.574-0.212c0.495,0.027,0.959,0.133,1.396,0.321c0.436,0.187,0.846,0.443,1.227,0.77
					c0.383,0.327,0.74,0.703,1.071,1.128c-0.328,0.467-0.493,0.701-0.828,1.167c-0.284-0.314-0.58-0.6-0.888-0.859
					c-0.306-0.259-0.62-0.472-0.942-0.639c-0.322-0.167-0.649-0.279-0.977-0.335c-0.327-0.057-0.655-0.037-0.983,0.059
					c-0.446,0.13-0.856,0.36-1.225,0.689c-0.371,0.329-0.676,0.743-0.916,1.239c-0.239,0.497-0.399,1.07-0.479,1.72
					C93.11,55.19,93.137,55.905,93.277,56.69z"/>
			</g>
			<g>
				<path d="M106.019,53.748c0.581,2.409,0.878,3.618,1.482,6.042c-0.997,0.208-1.497,0.313-2.502,0.529
					c-0.983-4.17-1.941-8.345-2.878-12.531c0.935-0.262,1.399-0.393,2.328-0.648c0.513,2.203,0.774,3.308,1.306,5.524
					c1.575-0.385,2.36-0.573,3.919-0.94c-0.583-2.25-0.869-3.372-1.433-5.61c0.911-0.242,1.367-0.361,2.272-0.597
					c1.148,4.332,2.316,8.654,3.509,12.968c-0.976,0.187-1.464,0.283-2.444,0.477c-0.658-2.462-0.982-3.69-1.62-6.137
					C108.389,53.184,107.604,53.369,106.019,53.748z"/>
			</g>
			<g>
				<path d="M62.479,82.751c-0.124,2.041-0.182,3.064-0.287,5.115c-1.018,0.286-1.528,0.433-2.55,0.73
					c0.233-3.547,0.507-7.089,0.817-10.624c0.961-0.333,1.44-0.497,2.396-0.82c-0.136,1.868-0.2,2.805-0.318,4.681
					c1.615-0.504,2.419-0.751,4.02-1.229c0.073-1.904,0.114-2.853,0.206-4.747c0.939-0.305,1.408-0.455,2.344-0.751
					c-0.122,3.652-0.209,7.307-0.257,10.963c-0.996,0.257-1.495,0.388-2.496,0.655c0.058-2.081,0.091-3.119,0.167-5.189
					C64.911,82.009,64.103,82.251,62.479,82.751z"/>
			</g>
			<g>
				<path d="M76.378,72.655c1.599,3.534,3.239,7.015,4.916,10.469c-1,0.215-1.502,0.326-2.509,0.551
					c-0.552-1.137-0.821-1.702-1.352-2.82c-1.536,0.375-2.308,0.568-3.857,0.967c-0.516,1.356-0.776,2.033-1.304,3.384
					c-0.681,0.167-1.021,0.253-1.704,0.425c1.666-4.172,3.271-8.4,4.805-12.68C75.776,72.831,75.977,72.771,76.378,72.655z
					 M74.022,80.659c1.194-0.312,1.789-0.464,2.976-0.762c-0.619-1.315-0.921-1.966-1.51-3.257
					C74.91,78.251,74.617,79.055,74.022,80.659z"/>
			</g>
			<g>
				<path d="M82.364,71.222c0.916-0.246,1.371-0.367,2.281-0.605c0.196,3.488,0.421,6.972,0.668,10.453
					c2.007-0.415,3.006-0.61,4.988-0.984c0.047,0.49,0.071,0.734,0.119,1.225c-2.487,0.454-4.97,0.938-7.451,1.456
					C82.736,78.924,82.531,75.075,82.364,71.222z"/>
			</g>
			<g>
				<path d="M97.716,67.506c0.052,0.417,0.077,0.624,0.129,1.041c-1.708,0.356-2.566,0.542-4.294,0.93
					c0.164,1.589,0.248,2.385,0.42,3.98c1.555-0.315,2.329-0.467,3.868-0.758c0.053,0.421,0.08,0.633,0.134,1.054
					c-1.548,0.284-2.325,0.432-3.889,0.74c0.266,2.416,0.403,3.628,0.69,6.059c-0.948,0.158-1.425,0.24-2.378,0.407
					c-0.425-3.987-0.821-7.981-1.183-11.982C93.38,68.47,95.547,67.98,97.716,67.506z"/>
			</g>
			<g>
				<path d="M103.089,73.16c0.361,2.396,0.546,3.597,0.926,6.006c-0.928,0.124-1.393,0.188-2.325,0.319
					c-0.603-4.144-1.188-8.293-1.749-12.449c0.875-0.181,1.314-0.27,2.184-0.442c0.313,2.19,0.475,3.287,0.804,5.49
					c1.471-0.249,2.202-0.367,3.658-0.594c-0.37-2.238-0.552-3.353-0.906-5.579c0.855-0.159,1.282-0.236,2.132-0.387
					c0.734,4.309,1.487,8.609,2.261,12.904c-0.905,0.1-1.358,0.152-2.27,0.261c-0.424-2.449-0.631-3.67-1.036-6.104
					C105.303,72.804,104.568,72.92,103.089,73.16z"/>
			</g>
			<g>
				<path d="M110.434,65.071c0.852-0.143,1.275-0.212,2.121-0.349c0.838,4.407,1.694,8.804,2.568,13.195
					c-0.901,0.083-1.353,0.126-2.259,0.217C112.036,73.786,111.225,69.433,110.434,65.071z"/>
			</g>
			<g>
				<path d="M115.142,64.32c0.841-0.127,1.259-0.188,2.093-0.308c0.843,4.04,1.698,8.075,2.569,12.103
					c1.838-0.147,2.753-0.212,4.568-0.326c0.133,0.568,0.199,0.853,0.332,1.422c-2.276,0.136-4.551,0.292-6.826,0.467
					C116.943,73.236,116.03,68.784,115.142,64.32z"/>
			</g>
			<g>
				<path d="M123.253,63.219c0.819-0.099,1.229-0.146,2.042-0.238c1,4.205,2.011,8.401,3.035,12.593
					c1.795-0.084,2.687-0.118,4.457-0.17c0.153,0.591,0.23,0.887,0.385,1.479c-2.221,0.06-4.44,0.138-6.66,0.236
					C125.404,72.497,124.316,67.863,123.253,63.219z"/>
			</g>
		</g>
	</g>
</g>
</svg>
