<?xml version="1.0" encoding="utf-8"?>
<!-- Generator: Adobe Illustrator 17.0.0, SVG Export Plug-In . SVG Version: 6.00 Build 0)  -->
<!DOCTYPE svg PUBLIC "-//W3C//DTD SVG 1.1//EN" "http://www.w3.org/Graphics/SVG/1.1/DTD/svg11.dtd">
<svg version="1.1" id="Layer_1" xmlns="http://www.w3.org/2000/svg" xmlns:xlink="http://www.w3.org/1999/xlink" x="0px" y="0px"
	 width="180px" height="140px" viewBox="0 0 180 140" enable-background="new 0 0 180 140" xml:space="preserve">
<g>
	<g>
		<path d="M45.509,51.525v2.605L25.627,86.937h8.062c2.246,0,3.905-0.229,4.977-0.687c1.071-0.458,2.03-1.293,2.877-2.505
			c0.847-1.211,1.564-2.867,2.151-4.967h2.929l-0.622,11.565H14.403v-2.547L34.13,54.932h-5.703c-3.647,0-6.057,0.416-7.233,1.246
			c-1.175,0.83-2.186,2.725-3.033,5.683h-2.773l0.544-10.335H45.509 M46.569,50.466h-1.06H15.933h-1.005l-0.053,1.004L14.33,61.804
			l-0.059,1.116h1.117h2.773h0.799l0.22-0.768c0.964-3.371,1.96-4.639,2.625-5.108c0.679-0.48,2.378-1.051,6.621-1.051h3.83
			L13.495,87.251l-0.151,0.251v0.294v2.547v1.06h1.06h31.599h1.004L47.06,90.4l0.622-11.565l0.06-1.117h-1.118h-2.929h-0.804
			l-0.217,0.774c-0.553,1.974-1.225,3.537-2,4.646c-0.728,1.041-1.544,1.761-2.425,2.137c-0.934,0.399-2.469,0.602-4.56,0.602
			h-6.181L46.416,54.68l0.153-0.253V54.13v-2.605V50.466L46.569,50.466z"/>
		<path d="M71.764,50.838L82.78,80.896c1.088,2.978,2.074,4.767,2.955,5.368c0.881,0.601,1.728,0.901,2.54,0.901v3.178H70.83v-3.178
			c1.572,0,2.549-0.167,2.929-0.5c0.38-0.334,0.571-0.759,0.571-1.274c0-0.458-0.156-1.06-0.467-1.804L73.526,82.7l-1.011-2.834
			H61.706l-0.674,1.918c-0.484,1.355-0.726,2.31-0.726,2.863c0,0.935,0.285,1.589,0.855,1.961c0.35,0.228,0.837,0.385,1.459,0.474
			c0.203,0.661,0.65,1.234,1.34,1.519v1.743H52.348v-0.046c1.666-0.358,2.223-2.209,1.676-3.57c1.491-0.808,2.791-2.739,3.897-5.802
			L68.73,50.838H71.764 M62.821,76.574h8.528L66.968,64.98L62.821,76.574 M72.504,49.778h-0.74H68.73h-0.745l-0.252,0.702
			l-10.81,30.087c-1.009,2.792-2.154,4.552-3.405,5.229l-0.83,0.45l0.352,0.877c0.19,0.474,0.164,1.062-0.068,1.498
			c-0.183,0.344-0.468,0.559-0.847,0.641l-0.837,0.18v0.856v0.046v1.06h1.06h11.613h1.06v-1.06v-1.743v-0.71l-0.657-0.27
			c-0.444-0.183-0.643-0.563-0.73-0.85l-0.198-0.643l-0.666-0.095c-0.582-0.083-0.88-0.215-1.029-0.312
			c-0.092-0.061-0.375-0.245-0.375-1.074c0-0.195,0.064-0.828,0.664-2.506l0.427-1.214h9.312l0.76,2.13l0.003,0.01l0.004,0.01
			l0.336,0.888l0.006,0.017l0.007,0.016c0.335,0.801,0.385,1.218,0.385,1.395c0,0.204-0.055,0.337-0.196,0.465
			c-0.064,0.035-0.526,0.25-2.244,0.25h-1.06v1.059v3.178v1.06h1.06h17.445h1.06v-1.06v-3.178v-1.059h-1.06
			c-0.591,0-1.245-0.241-1.943-0.717c-0.313-0.213-1.189-1.114-2.557-4.856L72.758,50.474L72.504,49.778L72.504,49.778z
			 M64.325,75.514l2.67-7.464l2.82,7.464H64.325L64.325,75.514z"/>
		<path d="M111.521,50.838c4.269,0,7.889,1.556,10.861,4.666c0.397-0.973,0.76-2.128,1.089-3.464h2.852l0.363,14.342h-2.852
			c-0.847-3.894-2.233-6.837-4.16-8.832c-1.927-1.994-4.212-2.992-6.856-2.992c-3.042,0-5.332,1.317-6.869,3.951
			c-1.538,2.634-2.307,6.747-2.307,12.338c0,3.932,0.276,7.047,0.83,9.347c0.553,2.3,1.646,4.07,3.279,5.31
			c1.633,1.241,3.418,1.861,5.353,1.861c2.557,0,4.838-0.982,6.843-2.949c2.004-1.966,3.448-4.962,4.329-8.989h2.877V90h-2.877
			c-0.329-1.546-0.821-2.786-1.478-3.722c-2.921,3.245-6.774,4.867-11.561,4.867c-5.444,0-13.688-4.321-16.955-8.253
			c-3.266-3.931,0-8.597,0-13.998c0-5.324,0.606-7.702,3.838-11.844C101.351,52.909,105.818,50.838,111.521,50.838 M111.521,49.778
			c-6.019,0-10.809,2.228-14.237,6.62c-3.448,4.419-4.062,7.116-4.062,12.496c0,1.774-0.384,3.501-0.755,5.171
			c-0.716,3.22-1.456,6.55,0.999,9.504c3.317,3.993,11.802,8.635,17.77,8.635c4.54,0,8.342-1.403,11.324-4.175
			c0.275,0.628,0.502,1.361,0.678,2.191l0.178,0.839h0.858h2.877h1.06V90V75.429v-1.06h-1.06h-2.877h-0.853l-0.183,0.834
			c-0.832,3.803-2.19,6.649-4.035,8.458c-1.815,1.78-3.811,2.646-6.102,2.646c-1.714,0-3.255-0.539-4.712-1.646
			c-1.446-1.098-2.391-2.64-2.89-4.714c-0.531-2.206-0.8-5.268-0.8-9.099c0-5.376,0.728-9.347,2.163-11.804
			c1.346-2.305,3.293-3.425,5.954-3.425c2.366,0,4.359,0.872,6.094,2.668c1.779,1.841,3.086,4.641,3.887,8.32l0.182,0.835h0.854
			h2.852h1.086l-0.027-1.086l-0.363-14.342l-0.026-1.033h-1.033h-2.852h-0.831l-0.198,0.807c-0.16,0.653-0.33,1.263-0.508,1.826
			C119,51.067,115.505,49.778,111.521,49.778L111.521,49.778z"/>
		<path d="M175.344,51.525v3.178c-1.867,0-3.107,0.314-3.72,0.945c-0.614,0.629-0.92,1.899-0.92,3.807v22.959
			c0,1.852,1.303,7.143,1.891,7.802c0.587,0.659,1.84,0.988,3.758,0.988v3.178l-19.284-4.038v-3.178c1.814,0,3.011-0.333,3.59-1.001
			c0.579-0.668,0.869-1.919,0.869-3.751V71.736H147.09v10.678c0,1.813,0.285,3.059,0.855,3.736c0.57,0.678,1.797,1.016,3.681,1.016
			v3.178h-18.327v-3.178c1.849,0,3.08-0.319,3.694-0.959c0.613-0.639,0.92-1.904,0.92-3.793V59.455c0-1.832-0.29-3.082-0.869-3.75
			c-0.579-0.668-1.827-1.001-3.746-1.001v-3.178h18.327v3.178c-1.832,0-3.046,0.329-3.642,0.987
			c-0.596,0.658-0.894,1.914-0.894,3.765v8.703h14.438v-8.703c0-1.794-0.282-3.035-0.843-3.722c-0.562-0.687-1.767-1.03-3.616-1.03
			v-3.178H175.344 M176.404,50.466h-1.06h-18.275h-1.06v1.059v3.178v1.059h1.06c2.05,0,2.638,0.449,2.795,0.642
			c0.226,0.275,0.604,1.039,0.604,3.051v7.643h-12.319v-7.643c0-2.061,0.389-2.797,0.62-3.053c0.174-0.192,0.801-0.639,2.856-0.639
			h1.06v-1.059v-3.178v-1.059h-1.06h-18.327h-1.06v1.059v3.178v1.059h1.06c2.16,0,2.779,0.445,2.945,0.636
			c0.228,0.263,0.61,1.009,0.61,3.056v22.959c0,2.173-0.438,2.863-0.626,3.06c-0.182,0.19-0.833,0.633-2.929,0.633h-1.06v1.059
			v3.178v1.06h1.06h18.327h1.06v-1.06v-3.178v-1.059h-1.06c-2.105,0-2.708-0.447-2.87-0.639c-0.227-0.27-0.607-1.023-0.607-3.054
			v-9.618h12.319v9.618c0,2.047-0.382,2.794-0.61,3.057c-0.165,0.191-0.769,0.636-2.789,0.636h-1.06v1.059v3.178v0.861l0.842,0.176
			l19.284,4.038l1.277,0.267v-1.304v-3.178v-1.06h-1.06c-2.09,0-2.75-0.411-2.947-0.611c-0.443-0.722-1.643-5.425-1.643-7.119
			V59.455c0-2.195,0.434-2.877,0.62-3.068c0.183-0.188,0.837-0.625,2.961-0.625h1.06v-1.059v-3.178V50.466L176.404,50.466z"/>
	</g>
	<g>
		<g>
			<path d="M31.83,78.963c-0.25,3.168-0.376,4.752-0.627,7.92c-0.071,0.945,0.2,1.416,0.813,1.409
				c0.307-0.003,0.619-0.215,0.93-0.634c1.322-1.781,3.01-2.701,5.074-2.732c2.026-0.031,3.612,0.559,4.764,1.757
				c0.512,0.534,0.87,1.172,1.064,1.913c0.195,0.742,0.279,1.808,0.252,3.198c-0.034,2.736-0.051,4.105-0.085,6.842
				c-0.01,0.594,0.054,1.029,0.192,1.304c0.138,0.276,0.472,0.618,0.996,1.027c0.363,0.284,0.538,0.63,0.523,1.035
				c-0.05,1.366-2.182,2.085-6.396,2.133c-3.749,0.043-5.594-0.583-5.537-1.856c0.01-0.214,0.049-0.379,0.119-0.493
				c0.07-0.114,0.312-0.418,0.719-0.914c0.573-0.696,0.92-2.436,1.042-5.211c0.074-1.677-0.038-2.901-0.318-3.664
				c-0.38-1.034-1.107-1.556-2.194-1.544c-0.781,0.008-1.371,0.291-1.767,0.848c-0.288,0.405-0.458,1.164-0.512,2.272
				c-0.07,1.459-0.105,2.188-0.175,3.647c0.012,1.612,0.046,2.525,0.101,2.739c0.054,0.213,0.331,0.612,0.833,1.185
				c0.231,0.263,0.34,0.57,0.324,0.923c-0.066,1.424-2,2.152-5.801,2.16c-4.447,0.009-6.629-0.739-6.546-2.208
				c0.019-0.339,0.104-0.6,0.257-0.781c0.152-0.182,0.52-0.46,1.091-0.837c0.508-0.335,0.897-1.252,1.165-2.741
				c0.268-1.489,0.494-3.957,0.681-7.401c0.146-2.702,0.163-4.582,0.076-5.618c-0.032-0.386-0.106-0.675-0.23-0.857
				c-0.123-0.181-0.365-0.366-0.723-0.553c-0.766-0.399-1.135-0.864-1.105-1.391c0.035-0.628,0.362-1.137,0.981-1.528
				c0.618-0.392,1.791-0.814,3.494-1.283c2.311-0.636,4.149-0.979,5.506-0.995C31.545,78.023,31.886,78.333,31.83,78.963z"/>
			<path d="M58.395,84.474c2.217-0.059,4.088,0.447,5.6,1.522c0.802,0.57,1.359,1.241,1.668,2c0.309,0.76,0.45,1.813,0.421,3.16
				c-0.04,1.137-0.059,1.705-0.098,2.842c-0.042,1.97,0.069,3.251,0.343,3.821c0.132,0.274,0.267,0.451,0.394,0.524
				c0.127,0.073,0.396,0.136,0.807,0.189c0.411,0.053,0.612,0.314,0.603,0.785c-0.012,0.61-0.272,1.253-0.783,1.927
				c-0.51,0.674-1.169,1.242-1.961,1.707c-0.98,0.576-2.003,0.886-3.064,0.911c-1.357,0.031-2.44-0.404-3.183-1.298
				c-0.263-0.317-0.509-0.485-0.742-0.479c-0.258,0.006-0.606,0.178-1.041,0.498c-1.298,0.956-2.798,1.445-4.44,1.477
				c-1.694,0.032-3.057-0.297-4.075-0.988c-0.668-0.454-1.19-1.059-1.563-1.805c-0.374-0.746-0.545-1.529-0.516-2.352
				c0.047-1.315,0.634-2.489,1.743-3.522c1.737-1.619,4.281-2.488,7.622-2.572c0.742-0.019,1.213-0.101,1.41-0.252
				c0.196-0.15,0.302-0.492,0.316-1.025c0.037-1.344-0.077-2.315-0.341-2.91c-0.265-0.595-0.716-0.885-1.354-0.87
				c-0.383,0.009-0.729,0.132-1.035,0.367c-0.307,0.235-0.703,0.664-1.159,1.281c-1.191,1.611-2.406,2.466-3.648,2.491
				c-0.628,0.013-1.134-0.16-1.518-0.519c-0.384-0.359-0.566-0.837-0.546-1.432c0.021-0.607,0.289-1.219,0.801-1.837
				c0.513-0.618,1.2-1.171,2.054-1.639C53.44,85.204,55.885,84.54,58.395,84.474z M56.804,95.522
				c-0.557,0.004-1.063,0.253-1.494,0.719c-0.431,0.466-0.656,1.014-0.675,1.648c-0.018,0.609,0.115,1.097,0.4,1.464
				c0.285,0.368,0.672,0.547,1.163,0.537c1.031-0.022,1.57-0.891,1.617-2.603c0.019-0.698-0.042-1.166-0.183-1.403
				C57.491,95.646,57.208,95.519,56.804,95.522z"/>
			<path d="M80.165,87.707c-0.026,2.457-0.038,3.685-0.064,6.142c-0.028,2.717-0.003,4.299,0.076,4.742
				c0.079,0.444,0.396,0.783,0.947,1.006c0.472,0.191,0.792,0.373,0.952,0.547c0.16,0.174,0.238,0.427,0.235,0.759
				c-0.004,0.421-0.159,0.808-0.465,1.161c-0.307,0.353-0.72,0.603-1.218,0.761c-0.927,0.294-2.505,0.491-4.716,0.551
				c-2.495,0.067-4.246-0.077-5.245-0.414c-0.459-0.155-0.839-0.401-1.13-0.744c-0.291-0.342-0.432-0.705-0.425-1.086
				c0.006-0.305,0.09-0.542,0.255-0.712c0.164-0.17,0.521-0.375,1.065-0.62c0.505-0.228,0.824-0.833,0.958-1.801
				c0.23-1.657,0.376-4.018,0.427-7.074c0.052-3.106-0.004-5.103-0.168-5.988c-0.163-0.886-0.602-1.549-1.303-1.944
				c-0.518-0.292-0.89-0.566-1.082-0.834c-0.192-0.268-0.285-0.598-0.277-0.993c0.012-0.623,0.321-1.177,0.927-1.66
				c0.605-0.483,1.567-0.942,2.878-1.382c0.878-0.294,2.017-0.588,3.415-0.878c1.398-0.29,2.414-0.446,3.047-0.468
				c1.001-0.035,1.495,0.572,1.483,1.822c-0.004,0.409-0.088,1.358-0.219,2.82C80.314,83.692,80.211,85.806,80.165,87.707z"/>
			<path d="M95.227,86.899c0.951-0.032,1.425-0.048,2.375-0.079c0.396-0.013,0.681,0.038,0.854,0.154
				c0.173,0.116,0.247,0.316,0.223,0.598c-0.059,0.917-0.089,1.376-0.148,2.293c-0.024,0.462-0.093,0.755-0.208,0.881
				c-0.115,0.126-0.372,0.195-0.769,0.208c-0.09,0.003-0.305-0.007-0.635-0.019c-0.228-0.007-0.423-0.005-0.576,0
				c-0.539,0.017-0.904,0.205-1.096,0.563c-0.192,0.358-0.288,1.03-0.288,2.016c0,1.344,0.164,2.48,0.445,3.385
				c0.12,0.387,0.283,0.681,0.502,0.859c0.219,0.179,0.586,0.329,1.084,0.457c1.128,0.29,1.703,0.904,1.706,1.813
				c0.003,0.961-0.656,1.673-1.979,2.134c-1.324,0.461-3.5,0.735-6.525,0.822c-4.486,0.129-6.721-0.687-6.707-2.449
				c0.003-0.434,0.099-0.756,0.288-0.966c0.188-0.209,0.609-0.455,1.233-0.745c0.682-0.317,1.1-0.909,1.248-1.742
				c0.223-1.256,0.342-2.604,0.351-4.035c0.003-0.639-0.106-1.08-0.329-1.322c-0.223-0.242-0.634-0.34-1.218-0.315
				c-0.684,0.029-1.134,0.001-1.325-0.063c-0.192-0.064-0.28-0.23-0.265-0.499c0.069-0.967,0.104-1.45,0.173-2.417
				c0.029-0.396,0.098-0.645,0.208-0.744c0.109-0.099,0.414-0.169,0.912-0.212c0.472-0.04,0.711-0.279,0.713-0.713
				c0.001-0.179-0.167-0.587-0.508-1.209c-0.57-1.038-0.864-2.09-0.855-3.149c0.012-1.558,0.558-2.846,1.629-3.868
				c1.571-1.497,3.81-2.301,6.724-2.407c2.396-0.087,4.312,0.412,5.745,1.502c1.106,0.841,1.665,1.844,1.669,2.998
				c0.003,0.833-0.268,1.545-0.814,2.134c-0.546,0.589-1.228,0.897-2.043,0.925c-0.918,0.031-1.822-0.256-2.637-0.871
				c-0.203-0.153-0.688-0.66-1.451-1.466c-0.538-0.569-1.092-0.844-1.639-0.825c-0.356,0.013-0.662,0.15-0.917,0.415
				c-0.255,0.265-0.383,0.583-0.385,0.953c-0.003,1.01,0.957,2.055,2.86,3.145c0.586,0.335,0.985,0.607,1.195,0.804
				c0.21,0.197,0.389,0.508,0.564,0.845C94.689,86.834,94.908,86.909,95.227,86.899z"/>
			<path d="M110.9,76.846c-0.059,3.235-0.089,4.852-0.149,8.086c-0.014,0.964,0.286,1.438,0.899,1.418
				c0.306-0.009,0.606-0.231,0.892-0.665c1.216-1.843,2.849-2.812,4.913-2.876c2.026-0.063,3.649,0.518,4.875,1.729
				c0.545,0.539,0.942,1.185,1.182,1.939c0.24,0.754,0.388,1.841,0.444,3.258c0.13,2.791,0.196,4.187,0.327,6.978
				c0.026,0.605,0.116,1.049,0.27,1.329c0.154,0.279,0.51,0.625,1.059,1.038c0.38,0.286,0.577,0.639,0.586,1.051
				c0.033,1.393-2.059,2.137-6.273,2.243c-3.749,0.094-5.633-0.503-5.652-1.803c-0.003-0.218,0.027-0.386,0.09-0.504
				c0.063-0.117,0.286-0.433,0.664-0.945c0.531-0.72,0.773-2.499,0.729-5.33c-0.027-1.711-0.213-2.958-0.54-3.731
				c-0.442-1.047-1.202-1.565-2.29-1.531c-0.781,0.024-1.354,0.325-1.717,0.901c-0.264,0.419-0.388,1.195-0.374,2.326
				c0.018,1.488,0.027,2.233,0.045,3.721c0.11,1.643,0.199,2.571,0.266,2.788c0.067,0.217,0.367,0.617,0.904,1.189
				c0.247,0.263,0.375,0.575,0.38,0.935c0.019,1.453-1.872,2.23-5.673,2.337c-4.447,0.125-6.672-0.56-6.679-2.06
				c-0.001-0.346,0.068-0.613,0.21-0.803c0.141-0.19,0.492-0.486,1.04-0.888c0.488-0.357,0.821-1.303,0.999-2.829
				c0.178-1.525,0.254-4.046,0.233-7.561c-0.017-2.758-0.114-4.673-0.264-5.726c-0.056-0.392-0.147-0.685-0.282-0.866
				c-0.135-0.181-0.388-0.362-0.757-0.541c-0.791-0.383-1.187-0.844-1.189-1.382c-0.002-0.641,0.293-1.17,0.888-1.588
				c0.595-0.418,1.742-0.885,3.418-1.41c2.273-0.712,4.093-1.108,5.45-1.154C110.558,75.894,110.917,76.203,110.9,76.846z"/>
			<path d="M137.813,83.368c0.119,3.759,0.239,7.518,0.358,11.276c0.028,0.893,0.129,1.544,0.304,1.955
				c0.174,0.411,0.512,0.788,1.014,1.128c0.409,0.277,0.684,0.515,0.826,0.713c0.142,0.199,0.218,0.453,0.229,0.763
				c0.056,1.67-2.029,2.538-6.257,2.622c-2.275,0.045-4.094-0.089-5.424-0.427c-0.454-0.115-0.826-0.338-1.111-0.654
				c-0.286-0.316-0.433-0.681-0.442-1.094c-0.008-0.348,0.057-0.621,0.194-0.817c0.137-0.197,0.493-0.515,1.059-0.955
				c0.392-0.304,0.664-0.796,0.814-1.472c0.15-0.675,0.208-1.678,0.174-3.008c-0.011-0.426-0.061-1.223-0.149-2.39
				c-0.087-1.167-0.144-1.849-0.175-2.041c-0.087-0.524-0.461-0.926-1.106-1.192c-0.8-0.329-1.211-0.833-1.227-1.517
				c-0.02-0.813,0.483-1.434,1.506-1.862c1.415-0.592,2.934-1.104,4.555-1.533c1.621-0.429,2.875-0.654,3.768-0.675
				C137.423,82.173,137.788,82.566,137.813,83.368z M133.777,74.966c1.102-0.03,1.984,0.157,2.643,0.561
				c0.66,0.404,1.001,0.962,1.023,1.674c0.032,0.996-0.433,1.799-1.394,2.403c-1.521,0.957-3.389,1.462-5.591,1.522
				c-0.93,0.025-1.675-0.146-2.229-0.482c-0.736-0.447-1.134-1.078-1.154-1.903c-0.027-1.11,0.735-2.004,2.277-2.682
				C130.921,75.369,132.395,75.003,133.777,74.966z"/>
			<path d="M152.176,85.711c0.106,2.501,0.158,3.752,0.264,6.253c0.117,2.766,0.227,4.377,0.33,4.83
				c0.103,0.454,0.438,0.804,1.003,1.042c0.483,0.204,0.812,0.395,0.981,0.576c0.169,0.181,0.261,0.439,0.275,0.777
				c0.019,0.428-0.114,0.82-0.402,1.173c-0.289,0.353-0.688,0.599-1.179,0.75c-0.912,0.281-2.483,0.453-4.694,0.479
				c-2.496,0.03-4.257-0.139-5.275-0.492c-0.468-0.163-0.861-0.418-1.17-0.769c-0.31-0.352-0.472-0.72-0.485-1.109
				c-0.011-0.311,0.062-0.553,0.217-0.724c0.156-0.171,0.502-0.376,1.033-0.619c0.494-0.227,0.781-0.838,0.864-1.823
				c0.141-1.684,0.161-4.086,0.049-7.196c-0.115-3.162-0.278-5.195-0.49-6.099c-0.211-0.903-0.685-1.583-1.409-1.993
				c-0.534-0.303-0.922-0.587-1.129-0.861c-0.207-0.274-0.316-0.611-0.33-1.013c-0.022-0.634,0.257-1.195,0.838-1.681
				c0.58-0.486,1.519-0.943,2.808-1.374c0.864-0.289,1.99-0.573,3.376-0.847c1.385-0.272,2.395-0.414,3.028-0.425
				c1.001-0.017,1.528,0.611,1.582,1.884c0.018,0.416-0.016,1.381-0.068,2.866C152.109,81.629,152.12,83.776,152.176,85.711z"/>
			<path d="M166.513,85.594c0.132,2.511,0.198,3.766,0.33,6.276c0.146,2.776,0.273,4.392,0.381,4.848
				c0.108,0.457,0.446,0.812,1.013,1.058c0.485,0.21,0.817,0.406,0.988,0.588c0.171,0.183,0.266,0.444,0.285,0.783
				c0.023,0.43-0.107,0.821-0.392,1.172c-0.285,0.352-0.682,0.594-1.171,0.741c-0.908,0.271-2.48,0.425-4.691,0.429
				c-2.495,0.004-4.259-0.181-5.28-0.545c-0.47-0.168-0.866-0.427-1.179-0.782c-0.314-0.355-0.479-0.728-0.496-1.118
				c-0.014-0.312,0.056-0.553,0.209-0.724c0.154-0.17,0.498-0.374,1.027-0.612c0.492-0.223,0.773-0.834,0.845-1.82
				c0.124-1.688,0.118-4.099-0.028-7.22c-0.148-3.173-0.333-5.214-0.554-6.123c-0.221-0.908-0.702-1.594-1.431-2.013
				c-0.538-0.309-0.928-0.597-1.137-0.873c-0.21-0.277-0.324-0.617-0.342-1.02c-0.028-0.637,0.245-1.196,0.82-1.679
				c0.575-0.482,1.51-0.932,2.795-1.351c0.861-0.281,1.985-0.556,3.367-0.816c1.382-0.259,2.39-0.391,3.024-0.394
				c1.001-0.006,1.535,0.631,1.603,1.908c0.022,0.418-0.001,1.385-0.038,2.875C166.404,81.498,166.436,83.652,166.513,85.594z"/>
		</g>
	</g>
	<polygon points="67.796,40.197 63.282,42.571 64.145,37.544 60.493,33.985 65.539,33.251 67.796,28.679 70.053,33.251 75.1,33.985 
		71.447,37.544 72.31,42.571 	"/>
	<polygon points="46.392,7.443 48.711,13.964 54.961,10.992 51.989,17.243 58.51,19.562 51.989,21.88 54.961,28.131 48.711,25.159 
		46.392,31.68 44.074,25.159 37.823,28.131 40.795,21.88 34.273,19.562 40.795,17.243 37.823,10.992 44.074,13.964 	"/>
	<polygon points="11.561,35.294 10.934,38.739 14.425,39.011 11.546,41.003 13.822,43.665 10.377,43.038 10.105,46.529 
		8.112,43.649 5.451,45.925 6.078,42.48 2.587,42.208 5.466,40.216 3.19,37.555 6.635,38.182 6.907,34.69 8.9,37.57 	"/>
	<polygon points="134.165,108.041 134.914,110.198 136.983,109.234 135.987,111.288 138.132,112.068 135.976,112.817 
		136.94,114.886 134.886,113.89 134.105,116.035 133.356,113.879 131.288,114.843 132.283,112.789 130.138,112.008 132.295,111.26 
		131.331,109.19 133.385,110.187 	"/>
	<polygon points="149.896,107.809 155.764,112.817 160.148,106.469 160.754,114.16 168.342,112.771 163.334,118.639 
		169.682,123.022 161.991,123.629 163.379,131.218 157.512,126.208 153.128,132.557 152.521,124.866 144.934,126.254 
		149.942,120.387 143.594,116.003 151.285,115.396 	"/>
</g>
</svg>
