<?xml version="1.0" encoding="utf-8"?>
<!-- Generator: Adobe Illustrator 17.0.0, SVG Export Plug-In . SVG Version: 6.00 Build 0)  -->
<!DOCTYPE svg PUBLIC "-//W3C//DTD SVG 1.1//EN" "http://www.w3.org/Graphics/SVG/1.1/DTD/svg11.dtd">
<svg version="1.1" id="Layer_1" xmlns="http://www.w3.org/2000/svg" xmlns:xlink="http://www.w3.org/1999/xlink" x="0px" y="0px"
	 width="180px" height="140px" viewBox="0 0 180 140" enable-background="new 0 0 180 140" xml:space="preserve">
<g id="_x37_gUUNY_1_">
</g>
<g>
	<g>
		<g>
			<path d="M89.981,106.785c1.646-2.72,2.512-4.099,4.33-6.895c-2.182,0.606-3.271,0.931-5.427,1.631
				c-0.136-0.571-0.205-0.862-0.34-1.433c3.308-1.1,4.98-1.597,8.35-2.479c0.101,0.574,0.151,0.87,0.252,1.444
				c-1.894,2.828-2.794,4.224-4.507,6.978c2.184-0.595,3.28-0.875,5.49-1.372c0.104,0.604,0.156,0.915,0.262,1.52
				c-3.251,0.705-4.868,1.111-8.072,2.03C90.183,107.639,90.116,107.354,89.981,106.785z"/>
			<path d="M102.295,96.316c1.062-0.231,1.596-0.343,2.662-0.553c2.013,3.288,2.979,4.991,4.813,8.488
				c-0.967,0.118-1.452,0.179-2.418,0.317c-0.361-0.707-0.542-1.056-0.908-1.755c-1.59,0.251-2.382,0.392-3.961,0.691
				c-0.19,0.78-0.283,1.164-0.466,1.94c-0.928,0.173-1.39,0.266-2.311,0.457C100.653,102.131,101.166,100.209,102.295,96.316z
				 M102.887,101.859c1.111-0.213,1.664-0.315,2.781-0.505c-0.714-1.325-1.075-1.974-1.813-3.269
				C103.454,99.605,103.262,100.357,102.887,101.859z"/>
			<path d="M112.107,95.542c0.86-0.896,2.013-1.447,3.438-1.614c1.904-0.223,3.333,0.188,4.215,1.19
				c0.494,0.559,0.756,1.155,0.798,1.761c-0.94,0.062-1.409,0.096-2.349,0.174c-0.16-0.452-0.362-0.783-0.604-0.995
				c-0.433-0.379-1.066-0.527-1.896-0.437c-0.843,0.092-1.492,0.462-1.942,1.098c-0.449,0.637-0.637,1.475-0.574,2.531
				c0.066,1.055,0.365,1.819,0.887,2.297c0.525,0.478,1.161,0.691,1.92,0.631c0.778-0.062,1.359-0.334,1.758-0.82
				c0.216-0.265,0.395-0.653,0.532-1.161c0.913-0.063,1.371-0.087,2.286-0.135c-0.186,1.074-0.673,1.964-1.453,2.665
				c-0.784,0.701-1.783,1.081-3.017,1.17c-1.525,0.108-2.749-0.218-3.685-0.987c-0.938-0.771-1.473-1.893-1.59-3.394
				C110.705,97.897,111.118,96.572,112.107,95.542z"/>
			<path d="M123.119,105.17c0.016-3.945-0.151-7.775-0.135-11.72c0.958-0.057,1.437-0.079,2.393-0.119
				c-0.028,1.521-0.045,2.283-0.075,3.802c1.747-0.047,2.628-0.057,4.379-0.046c0.076-1.548,0.112-2.323,0.186-3.872
				c0.961-0.007,1.44-0.009,2.4-0.001c-0.259,4.097-0.215,7.999-0.477,12.096c-0.894-0.045-1.345-0.064-2.24-0.094
				c0.089-1.812-0.043-4.57,0.044-6.381c-1.733-0.023-2.597-0.021-4.326,0.015c-0.036,1.779,0.123,4.524,0.09,6.303
				C124.459,105.153,124.011,105.154,123.119,105.17z"/>
			<path d="M79.6,123.335c-1.05-2.815-1.578-4.222-2.63-7.037c0.806-0.317,1.21-0.471,2.021-0.773
				c0.387,1.096,0.581,1.642,0.968,2.738c1.489-0.523,2.236-0.768,3.739-1.239c-0.359-1.139-0.541-1.708-0.899-2.847
				c0.817-0.273,1.228-0.412,2.047-0.671c0.904,3.044,1.358,4.568,2.261,7.613c-0.779,0.201-1.169,0.307-1.945,0.522
				c-0.424-1.334-0.634-1.995-1.054-3.328c-1.49,0.453-2.232,0.689-3.711,1.193c0.452,1.283,0.682,1.924,1.134,3.208
				C80.758,122.954,80.372,123.078,79.6,123.335z"/>
			<path d="M90.167,111.959c0.946-0.251,1.421-0.372,2.368-0.604c2.166,2.906,3.213,4.419,5.228,7.55
				c-0.864,0.136-1.298,0.204-2.157,0.358c-0.398-0.63-0.6-0.944-1.002-1.565c-1.416,0.277-2.122,0.425-3.533,0.748
				c-0.092,0.711-0.136,1.067-0.225,1.772c-0.824,0.183-1.238,0.282-2.061,0.481C89.262,117.28,89.535,115.53,90.167,111.959z
				 M91.273,116.953c0.989-0.231,1.486-0.34,2.481-0.548c-0.784-1.178-1.181-1.76-1.98-2.907
				C91.561,114.891,91.46,115.583,91.273,116.953z"/>
			<path d="M97.876,110.176c0.847-0.166,1.268-0.247,2.116-0.397c0.473,2.822,0.708,4.235,1.18,7.058
				c1.931-0.262,2.899-0.376,4.833-0.554c0.083,0.641,0.124,0.966,0.206,1.607c-2.716,0.222-4.068,0.374-6.771,0.761
				C98.812,115.26,98.503,113.566,97.876,110.176z"/>
			<path d="M107.003,108.744c2.914-0.347,4.376-0.468,7.307-0.638c0.038,0.662,0.058,0.991,0.098,1.653
				c-2.054,0.1-3.08,0.17-5.127,0.359c0.082,0.842,0.122,1.263,0.204,2.105c1.768-0.142,2.652-0.198,4.422-0.273
				c0.042,0.653,0.063,0.977,0.102,1.63c-1.749,0.059-2.623,0.108-4.369,0.232c0.147,1.532,0.224,2.298,0.37,3.831
				c-0.796,0.038-1.195,0.06-1.987,0.112C107.614,114.151,107.411,112.348,107.003,108.744z"/>
			<path d="M116.609,117.518c-0.169-3.808-0.251-5.713-0.419-9.522c0.854-0.036,1.279-0.051,2.132-0.072
				c0.041,1.47,0.065,2.201,0.107,3.67c1.557-0.009,2.338,0.007,3.893,0.05c0-1.499,0.003-2.251,0.003-3.75
				c0.854,0.007,1.279,0.011,2.135,0.033c-0.064,3.975-0.095,5.962-0.157,9.936c-0.794-0.062-1.186-0.089-1.982-0.139
				c0.002-1.756,0-2.629,0-4.386c-1.537-0.056-2.305-0.078-3.846-0.083c0.05,1.72,0.075,2.579,0.123,4.299
				C117.804,117.531,117.405,117.527,116.609,117.518z"/>
			<path d="M128.501,118.277c-0.79-0.094-1.188-0.136-1.98-0.215c0.133-4.019,0.2-6.029,0.333-10.048
				c0.853,0.04,1.278,0.063,2.134,0.118C128.792,112.189,128.696,114.219,128.501,118.277z"/>
			<path d="M131.497,108.321c0.859,0.072,1.285,0.109,2.144,0.198c-0.276,3.394-0.411,5.089-0.687,8.484
				c1.921,0.282,2.875,0.442,4.784,0.806c-0.089,0.76-0.133,1.142-0.223,1.901c-2.665-0.537-4.008-0.767-6.698-1.139
				C131.088,114.468,131.226,112.422,131.497,108.321z"/>
			<path d="M140.687,109.454c0.857,0.139,1.281,0.21,2.132,0.365c-0.516,3.513-0.772,5.27-1.287,8.783
				c1.897,0.432,2.842,0.665,4.723,1.178c-0.143,0.782-0.215,1.178-0.36,1.961c-2.622-0.746-3.945-1.078-6.603-1.657
				C139.849,115.832,140.128,113.706,140.687,109.454z"/>
		</g>
	</g>
	<g>
		<path fill-rule="evenodd" clip-rule="evenodd" d="M76.091,16.665c0.746,0.804,0.797,0.982,0.288,1.943
			c-1.126,2.134-2.302,4.242-3.414,6.383c-0.392,0.753-0.654,1.573-1.062,2.569c0.706-0.034,1.182-0.009,1.64-0.087
			c2.379-0.402,4.748-0.868,7.132-1.239c1.716-0.267,3.447-0.436,5.175-0.62c0.613-0.065,0.817,0.228,0.479,0.73
			c-0.736,1.091-1.515,2.156-2.326,3.193c-0.574,0.734-1.238,1.398-1.849,2.104c-0.2,0.231-0.356,0.5-0.63,0.89
			c3.636,1.407,7.131,2.76,10.622,4.113c0.016,0.588-0.373,0.792-0.796,0.987c-1.607,0.741-3.213,1.486-4.812,2.244
			c-0.298,0.142-0.566,0.347-0.971,0.601c0.697,0.515,1.215,1.01,1.826,1.32c0.768,0.39,1.182,0.921,1.214,1.775
			c0.014,0.346,0.074,0.69,0.113,1.051c-0.819-0.121-8.062-3.74-8.396-4.198c2.982-1.066,6.002-1.998,9.025-3.492
			c-3.375-1.406-6.562-2.734-9.844-4.103c1.468-1.879,2.888-3.696,4.428-5.667c-0.558,0-0.959-0.054-1.343,0.008
			c-2.348,0.382-4.689,0.806-7.037,1.181c-1.207,0.193-2.422,0.353-3.639,0.461c-1.167,0.104-1.768-0.57-1.57-1.721
			c0.068-0.406,0.196-0.821,0.386-1.186c0.908-1.739,1.854-3.457,2.77-5.192c0.194-0.37,0.582-0.72,0.229-1.342
			c-0.372,0.165-0.765,0.279-1.093,0.492c-1.969,1.285-3.921,2.594-5.881,3.89c-1.532,1.011-3.061,2.026-4.607,3.014
			c-0.431,0.274-0.901,0.504-1.382,0.678c-0.696,0.252-1.412-0.169-1.494-0.913c-0.084-0.764-0.059-1.541-0.06-2.312
			c-0.002-0.354,0.077-0.707,0.068-1.06c-0.014-0.578-0.287-0.782-0.806-0.513c-0.375,0.194-0.731,0.524-0.963,0.878
			c-1.064,1.612-2.083,3.255-3.12,4.884c-0.208,0.326-0.416,0.654-0.653,0.957c-0.544,0.692-1.102,0.801-1.853,0.326
			c-0.652-0.413-1.271-0.879-1.906-1.319c-0.212-0.147-0.419-0.303-0.646-0.423c-0.773-0.408-1.167-0.267-1.474,0.563
			c-0.634,1.72-1.251,3.446-1.865,5.173c-0.289,0.816-0.58,1.119-1.391,0.963c-0.933-0.179-1.827-0.556-2.737-0.85
			c-0.408-0.132-0.812-0.274-1.217-0.412c-0.056,0.059-0.11,0.117-0.166,0.176c0.096,0.316,0.172,0.639,0.288,0.948
			c0.227,0.6,0.507,1.181,0.705,1.79c0.297,0.922,0.057,1.325-0.893,1.659c-0.239,0.085-0.496,0.165-0.696,0.312
			c-0.624,0.461-0.515,1.336,0.207,1.62c0.324,0.127,0.708,0.106,1.028,0.241c1.36,0.569,2.733,1.12,4.052,1.777
			c1.093,0.545,1.439,0.727,2.57,0.758c-0.158-0.389-0.312-0.722-0.432-1.066c-0.229-0.659-0.141-1.2,0.385-1.44
			c0.885-0.404,1.823-0.694,2.738-1.032c0.037,0.055,0.073,0.11,0.11,0.166c-0.125,0.148-0.227,0.331-0.38,0.436
			c-0.318,0.217-0.666,0.389-0.999,0.584c-0.877,0.516-0.969,0.908-0.157,1.479c1.163,0.819,1.106,1.896,0.945,3.112
			c-0.959-0.171-1.865-0.335-2.773-0.491c-0.188-0.034-0.385-0.071-0.574-0.059c-0.645,0.039-0.858,0.286-0.732,0.938
			c0.197,1.024,0.287,2.031-0.104,2.968c-1.226-0.029-2.406-0.098-3.584-0.073c-1.395,0.029-2.448,0.658-3.11,1.929
			c-0.451,0.871-0.471,1.737-0.05,2.594c0.825,1.681,2.283,2.658,3.92,3.419c0.516,0.239,0.995,0.087,1.478-0.151
			c0.586-0.29,0.661-0.195,0.769,0.435c0.094,0.557,0.275,1.107,0.488,1.632c0.385,0.949,0.814,1.882,1.245,2.811
			c0.087,0.186,0.231,0.431,0.399,0.48c1.864,0.539,3.729,1.091,5.89,1.267c-0.325-0.358-0.506-0.571-0.7-0.77
			c-1.875-1.915-2.151-4.164-1.352-6.616c0.255-0.777,0.754-1.492,0.446-2.375c-0.017-0.044,0.111-0.139,0.207-0.25
			c0.91,0.64,1.813,1.273,2.716,1.908c-0.028,0.085-0.057,0.169-0.085,0.254c-0.344-0.055-0.688-0.114-1.035-0.165
			c-0.752-0.11-0.978,0.001-1.259,0.711c-0.813,2.052-0.715,3.946,0.923,5.616c2.518,2.565,5.249,4.851,8.415,6.584
			c2.801,1.534,5.469,1.274,8.015-0.789c-0.051-0.411-0.103-0.845-0.179-1.465c0.744,0.528,0.966,1.198,1.271,1.791
			c0.033,0.066-0.226,0.328-0.389,0.44c-0.308,0.211-0.674,0.343-0.966,0.571c-1.045,0.82-2.125,1.56-3.416,1.948
			c-0.794,0.239-1.601,0.302-2.378,0.031c-1.429-0.498-2.836-1.056-4.427-0.765c-0.87-2.941-3.118-4.317-5.644-5.36
			c-1.822-0.752-3.726-1.244-5.698-1.386c-1.334-0.096-1.721,0.231-2.177,1.707c1.28,0.452,2.567,0.907,3.865,1.366
			c-0.01,0.595-0.268,0.807-0.781,0.77c-1.253-0.09-2.506-0.16-3.759-0.258c-1.169-0.092-1.97,0.612-2.04,1.775
			c-0.024,0.429,0.226,0.587,0.539,0.682c0.798,0.243,1.6,0.483,2.411,0.67c0.752,0.174,1.522,0.267,2.28,0.417
			c0.717,0.141,0.902,0.361,0.942,1.143c-1.69-0.295-3.357-0.585-5.024-0.88c-0.189-0.033-0.372-0.112-0.563-0.134
			c-1.733-0.2-2.053,0.194-2.299,1.786c-0.127,0.814,0.082,1.092,0.874,1.366c1.854,0.64,3.717,1.255,5.568,1.905
			c0.605,0.212,1.367,0.344,1.74,0.781c0.803,0.939,1.667,0.546,2.529,0.379c2.397-0.465,4.785-0.972,7.282-1.484
			c0.37,0.967-0.007,1.947,0.093,3.004c-0.35,0.041-0.643,0.076-0.987,0.116c-0.052-0.489-0.095-0.894-0.153-1.456
			c-2.91,0.573-5.764,1.134-8.705,1.713c-0.131-1.111-0.922-1.348-1.728-1.619c-2.011-0.679-4.007-1.402-6.012-2.097
			c-1.382-0.479-1.902-0.312-2.429,1.031c-0.321,0.819-0.404,1.735-0.56,2.615c-0.071,0.402,0.1,0.65,0.563,0.715
			c2.993,0.419,5.982,0.86,9.037,1.304c0.183-0.234,0.391-0.501,0.68-0.871c0.165,0.237,0.338,0.384,0.378,0.562
			c0.139,0.601,0.52,0.782,1.074,0.689c2.346-0.396,4.694-0.779,7.033-1.214c0.646-0.12,1.261-0.4,2.107-0.678
			c-0.94,1.548-1.024,3.026-0.416,4.68c-0.314,0.42-0.712,0.954-1.124,1.508c-0.958-0.261-1.833-0.205-2.747,0.177
			c-0.565,0.236-1.267,0.178-1.908,0.188c-0.816,0.013-1.462,0.221-1.649,1.28c-1.07-1.383-2.567-1.004-3.875-1.191
			c-3.217-0.459-6.454-0.778-9.68-1.169c-1.396-0.17-1.903,0.161-2.096,1.435c-0.107,0.717-0.003,0.925,0.726,1.074
			c1.891,0.388,3.782,0.781,5.687,1.09c2.223,0.36,4.459,0.637,6.691,0.938c0.382,0.051,0.771,0.045,1.157,0.053
			c1.023,0.021,1.498,0.412,1.706,1.449c0.188,0.945,0.352,1.895,0.534,2.84c0.076,0.39,0,0.913,0.612,0.926
			c0.565,0.013,0.616-0.493,0.75-0.869c0.538-1.515,1.021-3.05,1.589-4.554c0.363-0.959,0.817-1.886,1.271-2.808
			c0.298-0.608,0.329-0.593,1.199-0.344c0.017,1.31-0.746,2.447-0.857,3.771c0.273-0.298,0.547-0.595,0.819-0.894
			c2.068-2.28,4.482-4.157,6.957-5.964c3.257-2.376,6.593-4.625,10.314-6.227c2.988-1.286,6.031-2.456,9.277-2.884
			c3.864-0.509,7.738-0.377,11.508,0.624c3.862,1.026,6.78,3.444,8.973,6.764c1.681,2.547,2.505,5.356,2.501,8.385
			c-0.001,1.082-0.266,2.165-0.433,3.243c-0.024,0.154-0.182,0.287-0.276,0.429c-0.069-0.009-0.139-0.019-0.207-0.027
			c-0.024-0.357-0.05-0.714-0.068-1.071c-0.136-2.688-0.556-5.307-1.804-7.739c-0.957-1.866-2.267-3.436-3.914-4.722
			c-2.952-2.303-6.326-3.503-10.034-3.874c-5.169-0.517-10.166,0.264-14.944,2.197c-2.314,0.937-4.489,2.234-6.688,3.446
			c-3.219,1.775-6.296,3.773-9.122,6.137c-1.735,1.454-3.306,3.067-4.461,5.04c-0.146,0.25-0.259,0.518-0.408,0.765
			c-0.491,0.809-0.252,1.503,0.097,2.34c0.911,2.181,2.833,3.354,4.472,4.806c1.208,1.071,1.394,1.511,0.853,3.103
			c0.389,0.22,0.782,0.49,1.211,0.676c0.618,0.27,1.27,0.463,1.896,0.717c1.944,0.789,2.296,2.717,2.014,4.236
			c-0.314,1.688-1.473,2.644-2.948,3.311c-2.105,0.954-4.339,1.447-6.614,1.69c-2.462,0.263-4.939,0.482-7.413,0.524
			c-2.066,0.036-4.096-0.451-6.004-1.271c-1.343-0.577-2.7-0.783-4.139-0.618c-1.082,0.124-1.913-0.43-2.698-1.074
			c-0.061-0.05-0.094-0.168-0.093-0.254c0.001-0.089,0.061-0.177,0.12-0.334c1.115,0.576,2.275,0.912,3.531,0.741
			c0.391-0.053,0.979,0.054,0.932-0.541c-0.042-0.535-0.604-0.446-1.016-0.477c-1.455-0.11-2.772-0.532-3.79-1.655
			c-0.889-0.982-0.966-1.808-0.153-2.839c0.456-0.578,0.98-1.111,1.524-1.609c1.116-1.02,1.246-1.701,0.82-3.17
			c-0.742-2.56-1.403-5.144-2.068-7.725c-0.106-0.414-0.062-0.866-0.089-1.327c0.731,0.029,0.986,0.346,1.115,0.948
			c0.222,1.033,0.516,2.056,0.853,3.059c0.282,0.844,1.31,1.377,2.089,1.181c0.706-0.177,1.242-1.014,1.118-1.918
			c-0.075-0.56-0.266-1.121-0.494-1.641c-0.309-0.703-0.202-0.961,0.741-1.171c-0.352,0.551-0.171,1.006,0.071,1.478
			c0.264,0.513,0.449,1.067,0.695,1.591c0.358,0.761,0.915,1.281,1.812,1.143c2.188-0.339,4.41-0.542,6.453-1.524
			c1.325-0.637,1.819-1.538,1.452-2.963c-0.608-2.365-0.261-1.899-2.437-2.175c-3.639-0.459-7.263-1.027-10.896-1.536
			c-0.362-0.051-0.739-0.006-1.194-0.006c-0.032,0.551-0.025,0.999-0.096,1.435c-0.064,0.406-0.122,0.864-0.35,1.175
			c-0.158,0.215-0.608,0.3-0.915,0.278c-0.129-0.009-0.328-0.442-0.326-0.682c0.004-0.868,0.065-1.737,0.133-2.604
			c0.049-0.623-0.159-1.102-0.598-1.552c-0.369-0.378-0.638-0.854-0.951-1.287c0-0.065,0-0.129,0-0.194
			c0.092-0.164,0.201-0.321,0.271-0.494c0.954-2.318,1.878-4.648,2.857-6.955c0.903-2.131,1.861-4.24,2.799-6.357
			c1.389-3.135,2.998-6.145,5.44-8.597c0.921-0.925,0.958-1.798,0.4-2.842c-0.091-0.169-0.189-0.336-0.275-0.508
			c-0.434-0.872-1.063-1.341-2.077-1.611c-2.529-0.671-4.526-2.108-5.503-4.683c-0.261-0.689-0.306-1.36-0.103-2.073
			c0.512-1.801,1.659-2.953,3.476-3.376c0.811-0.189,1.65-0.329,2.479-0.337c0.83-0.007,0.96-0.44,0.743-1.134
			c-0.529-1.687-1.535-2.931-3.14-3.717c-0.806-0.394-1.578-0.87-2.309-1.389c-0.672-0.479-1.117-1.164-1.187-2.019
			c-0.066-0.821,0.418-1.419,1.088-1.4c1.3,0.035,1.628-0.365,1.285-1.61c-0.23-0.836-0.531-1.654-0.737-2.496
			c-0.162-0.659-0.228-1.341-0.36-2.159c0.598,0.218,1.002,0.33,1.376,0.507c1.017,0.484,2.014,1.003,3.027,1.492
			c1.17,0.564,1.393,0.458,1.829-0.747c0.645-1.783,1.301-3.563,1.966-5.338c0.415-1.105,1.119-1.31,2.1-0.634
			c0.187,0.127,0.36,0.273,0.546,0.399c0.718,0.485,1.428,0.983,2.163,1.441c0.404,0.252,0.77,0.204,1.074-0.241
			c1.272-1.858,2.556-3.709,3.856-5.547c0.725-1.024,1.46-2.044,2.261-3.008c0.197-0.238,0.7-0.404,1-0.333
			c0.402,0.095,0.444,0.553,0.406,0.973c-0.127,1.443-0.218,2.889-0.344,4.332c-0.091,1.04,0.358,1.397,1.306,0.995
			c0.206-0.087,0.4-0.207,0.587-0.334c1.959-1.353,3.907-2.721,5.875-4.062c2.302-1.569,4.472-3.367,7.203-4.2
			C75.447,16.665,75.769,16.665,76.091,16.665z M58.165,107.596c-0.177-0.199-0.232-0.241-0.26-0.296
			c-0.492-0.957-0.737-0.993-1.513-0.21c-0.044,0.046-0.073,0.125-0.125,0.144c-0.218,0.077-0.442,0.137-0.664,0.204
			c-0.064-0.229-0.19-0.461-0.18-0.685c0.017-0.315,0.125-0.628,0.21-0.938c0.111-0.404-0.114-0.624-0.436-0.741
			c-0.354-0.128-0.54,0.102-0.627,0.417c-0.268,0.985-1.076,1.331-1.934,1.512c-0.816,0.173-1.657,0.246-2.49,0.286
			c-1.788,0.088-3.527-0.06-5.106-1.06c-0.668-0.423-1.399-0.352-2.119,0.01c-0.813,0.408-1.274,1.096-1.183,1.935
			c0.089,0.807,0.812,1.131,1.578,1.342c3.084,0.848,6.228,0.925,9.391,0.823c2.672-0.085,5.349-0.182,7.94-0.907
			c0.921-0.257,1.813-0.653,2.671-1.084c0.727-0.364,1.114-1.334,0.919-1.959c-0.341-1.089-1.566-1.431-2.496-0.672
			c-0.407,0.332-0.763,0.726-1.26,1.205c-0.031-0.339-0.072-0.491-0.054-0.635c0.045-0.337,0.07-0.737-0.315-0.796
			c-0.3-0.046-0.692,0.092-0.942,0.283c-0.234,0.178-0.342,0.528-0.494,0.809C58.517,106.883,58.369,107.19,58.165,107.596z
			 M54.793,97.749c-0.997-0.599-4.953-0.21-6.117,0.573c0.008,0.063-0.01,0.152,0.025,0.183c0.291,0.247,0.598,0.475,0.885,0.725
			c1.094,0.954,1.006,2.017-0.256,2.709c-1.02,0.56-2.111,0.536-3.179,0.162c-1.443-0.506-1.962-1.483-1.642-3.016
			c-0.195-0.074-0.394-0.19-0.605-0.222c-0.958-0.146-1.33,0.201-1.226,1.148c0.045,0.414,0.094,0.839,0.226,1.23
			c0.488,1.433,1.268,2.524,3.004,2.488c1.857-0.04,3.738,0.13,5.571-0.101c1.993-0.251,3.958-0.798,5.901-1.335
			c0.868-0.24,1.718-0.682,2.319-1.555c-0.675-0.494-1.306-0.981-1.961-1.431c-0.59-0.405-0.949-0.313-1.36,0.302
			c-0.16,0.239-0.296,0.494-0.493,0.829c-0.27-0.734,0.526-1.499-0.635-2.08c-0.225,0.306-0.454,0.7-0.764,1.015
			c-0.318,0.325-0.714,0.574-1.074,0.855c-0.062-0.059-0.122-0.118-0.183-0.177C53.27,99.007,54.429,98.665,54.793,97.749z
			 M57.579,80.019c-0.362,0-0.558-0.034-0.736,0.005c-2.135,0.464-4.274,0.907-6.394,1.431c-0.58,0.144-1.007,0.172-1.493-0.236
			c-0.268-0.226-0.7-0.295-1.071-0.349c-1.337-0.192-2.681-0.334-4.02-0.519c-1.816-0.252-3.628-0.536-5.444-0.784
			c-0.962-0.131-2.017,1.03-1.819,2c0.041,0.197,0.196,0.432,0.368,0.524c0.299,0.163,0.643,0.277,0.981,0.331
			c2.985,0.472,5.979,0.893,8.957,1.406c0.953,0.164,1.73,0.196,2.184-1.099c0.586,1.237,1.52,1.312,2.521,1.197
			c0.511-0.06,1.026-0.095,1.527-0.201c1.131-0.238,2.256-0.5,3.377-0.778c0.423-0.104,0.778-0.333,0.836-0.825
			C57.431,81.457,57.496,80.791,57.579,80.019z M38.62,108.57c1.156-0.002,1.143-0.007,1.572-1.077
			c0.202-0.504,0.453-0.987,0.696-1.473c0.359-0.72,0.301-0.892-0.46-1.227c-1.202-0.533-2.342-0.307-3.354,0.428
			c-0.675,0.491-1.021,1.219-0.812,2.107c0.198,0.841,0.935,0.976,1.594,1.189C38.092,108.595,38.364,108.557,38.62,108.57z
			 M62.728,109.86c-6.441,1.927-12.875,2.115-19.377,1.166C46.715,113.198,59.131,112.69,62.728,109.86z M45.48,105.091
			c1.542,1.127,6.344,1.216,7.957,0.087C50.661,104.668,48.062,105.162,45.48,105.091z M42.566,104.124
			c0.104-0.055,0.208-0.111,0.315-0.166c-0.129-0.66-0.245-1.322-0.393-1.979c-0.022-0.099-0.17-0.189-0.279-0.247
			c-0.642-0.342-1.944,0.128-2.394,0.925C40.734,103.146,41.65,103.635,42.566,104.124z M59.688,103.174
			c-1.129-0.832-1.976-0.753-2.519,0.192C58.267,104.047,59.071,104.001,59.688,103.174z"/>
		<path fill-rule="evenodd" clip-rule="evenodd" d="M75.937,59.696c0.3,0.184,0.568,0.346,0.902,0.551
			c0.506-0.63,0.991-1.223,1.46-1.828c1.503-1.935,2.954-3.907,3.888-6.195c0.24-0.586,0.407-1.21,0.536-1.832
			c0.174-0.83,0.069-0.935-0.682-1.348c-0.617-0.339-1.203-0.733-1.793-1.121c-0.117-0.077-0.186-0.231-0.19-0.512
			c1.14,0.396,2.28,0.792,3.47,1.205c0.146-0.46,0.229-0.766,0.34-1.063c0.449-1.228,0.473-1.271-0.724-1.873
			c-1.925-0.968-3.883-1.87-5.824-2.804c-0.308-0.148-0.6-0.323-0.939-0.507c0.765-0.775,1.572-0.792,2.395-0.466
			c0.775,0.306,1.537,0.662,2.271,1.056c3.29,1.764,6.567,3.548,9.848,5.33c0.154,0.084,0.286,0.209,0.394,0.399
			c-0.883,0.088-1.687-0.177-2.488-0.444c-0.546-0.183-1.096-0.358-1.635-0.563c-0.451-0.172-0.74,0.002-0.966,0.377
			c-0.051,0.083-0.112,0.158-0.161,0.241c-0.687,1.157-0.685,1.2,0.376,2.024c0.712,0.554,1.442,1.084,2.157,1.634
			c0.213,0.165,0.404,0.36,0.733,0.655c-2.018,0.212-3.17-1.346-4.78-1.813c-2.342,3.85-4.401,7.803-7.584,10.988
			c-0.203-0.089-0.355-0.14-0.491-0.219c-0.859-0.494-1.676-0.702-2.724-0.35c-0.813,0.271-1.785,0.105-2.684,0.072
			c-0.566-0.022-0.957,0.166-1.337,0.584c-0.82,0.906-1.675,1.781-2.915,2.143c-0.748,0.218-1.467,0.184-2.174-0.082
			c-0.475-0.179-0.895-0.459-1.085-1.105c0.398,0.094,0.7,0.169,1.004,0.236c1.621,0.363,2.993-0.18,3.936-1.556
			c0.091-0.133,0.202-0.262,0.253-0.41c0.243-0.707,0.741-0.851,1.435-0.79c0.832,0.075,1.675,0.068,2.512,0.048
			c0.408-0.01,0.819-0.11,1.22-0.206c0.454-0.107,0.74-0.428,0.775-0.883c0.036-0.491-0.346-0.732-0.725-0.929
			c-1.103-0.574-2.523-0.32-3.367,0.597c-0.106,0.114-0.19,0.249-0.344,0.453c-0.14-0.244-0.242-0.42-0.345-0.597
			c-0.487-0.849-1.185-1.443-2.139-1.687c-2.087-0.534-4.182-1.036-6.267-1.576c-0.807-0.209-1.608-0.454-2.391-0.741
			c-1.144-0.42-1.942-1.23-2.422-2.352c-0.134-0.313-0.23-0.627,0.122-0.858c0.399-0.262,0.615,0.066,0.772,0.323
			c0.671,1.094,1.615,1.836,2.819,2.226c0.515,0.167,1.07,0.204,1.606,0.31c1.1,0.215,2.197,0.436,3.478,0.69
			c-0.025-0.519,0.057-1.009-0.089-1.417c-0.555-1.564-1.412-2.961-2.577-4.153c-0.677-0.693-1.273-0.734-1.877-0.008
			c-1.07,1.286-2.334,1.3-3.803,0.73C57.08,50.054,57,49.808,57,49.562c-0.002-1.186-0.284-2.301-0.854-3.333
			c-0.279-0.51-0.175-0.909,0.186-1.31c0.295-0.328,0.606-0.421,1.028-0.236c2.716,1.2,5.175,2.731,6.937,5.21
			c1.045,1.472,2.187,2.887,2.326,4.756c1.059,0.342,1.161,0.295,1.632-0.572c0.178-0.323,0.406-0.618,0.611-0.925
			c0.089,0.034,0.177,0.067,0.267,0.101c-0.184,0.787-0.366,1.573-0.551,2.359c0.066,0.024,0.131,0.048,0.197,0.072
			c0.561-0.974,1.122-1.949,1.684-2.922c0.084,0.031,0.168,0.063,0.251,0.095c-0.12,1.141-0.792,2.144-1.032,3.361
			c0.794,0.089,1.555,0.119,2.292,0.268c0.878,0.176,1.764,0.382,2.596,0.704C75.753,57.647,76.161,58.447,75.937,59.696z
			 M60.047,47.929c0.004-0.74-0.373-1.148-1.064-1.155c-0.532-0.005-0.876,0.488-0.876,1.257c0,0.875,0.194,1.118,0.912,1.135
			C59.833,49.185,60.044,48.931,60.047,47.929z"/>
		<path fill-rule="evenodd" clip-rule="evenodd" d="M74.164,61.717c1.617,0.429,3.045,1.087,4.32,2.045
			c-0.041,0.092-0.082,0.185-0.122,0.277c-0.785-0.312-1.568-0.623-2.418-0.96c-0.287,0.81-0.553,1.595-0.844,2.37
			c-1.326,3.544-3.791,6.012-7.245,7.475c-1.615,0.683-3.336,0.978-5.101,0.798c-1.015-0.103-1.933-0.475-2.719-1.141
			c-0.312-0.265-0.627-0.529-1.021-0.863c-0.178,0.707-0.334,1.329-0.493,1.955c-0.874-0.222-0.701-0.985-1.062-1.461
			c-0.886-0.245-1.747,0.094-2.615,0.27c-1.543,0.31-3.076,0.668-4.618,0.992c-0.213,0.045-0.445,0.007-0.667,0.007
			c-0.301-0.864-0.2-1.207,0.538-1.396c2.707-0.694,5.426-1.343,8.135-2.029c0.66-0.168,1.11,0.052,1.492,0.577
			c1.392,1.912,3.278,2.304,5.487,1.832c4.46-0.952,7.172-3.794,8.71-7.936c0.079-0.211,0.153-0.425,0.207-0.642
			C74.301,63.188,74.841,62.498,74.164,61.717z"/>
		<path fill-rule="evenodd" clip-rule="evenodd" d="M67.853,37.069c1.571-0.456,2.986-1.373,4.777-0.786
			c1.755,0.575,3.612,0.84,5.414,1.283c0.88,0.216,1.824,0.327,2.671,1.197c-1.618,0.062-3.009-0.228-4.407-0.413
			c-1.43-0.19-2.861-0.369-4.291-0.573C70.631,37.578,69.193,37.672,67.853,37.069z"/>
		<path fill-rule="evenodd" clip-rule="evenodd" d="M109.84,91.724c0.854-1.51,2.099-2.463,3.599-3.105
			c0.899-0.385,1.819-0.626,2.812-0.437c0.687,0.131,1.05,0.506,1.052,1.144c0.004,0.646-0.359,1.079-1.017,1.197
			c-0.156,0.028-0.319,0.029-0.481,0.029c-1.726,0.005-3.375,0.393-4.986,0.979C110.51,91.643,110.168,91.662,109.84,91.724z"/>
		<path fill-rule="evenodd" clip-rule="evenodd" d="M102.905,91.813c-1.769,0.098-3.36,0.187-4.95,0.269
			c-0.224,0.011-0.456,0.017-0.673-0.028c-0.681-0.136-1.17-0.734-1.139-1.357c0.028-0.62,0.469-1.014,1.224-1.107
			C99.579,89.319,101.36,90.104,102.905,91.813z"/>
		<path fill-rule="evenodd" clip-rule="evenodd" d="M101.067,88.603c-1.445-0.238-2.711,0.364-4.038,0.658
			c-0.47,0.104-1.015,0.024-1.492-0.102c-0.476-0.125-0.656-0.589-0.688-1.059c-0.032-0.473,0.246-0.772,0.657-0.962
			c1.56-0.719,4.322-0.181,5.557,1.088C101.093,88.259,101.067,88.347,101.067,88.603z"/>
		<path fill-rule="evenodd" clip-rule="evenodd" d="M61.457,37.641c-0.01-1.248,0.069-1.329,0.962-1.594
			c1.536-0.456,3.064-0.935,4.589-1.426c2.531-0.815,5.054-1.646,7.582-2.465c0.081-0.027,0.184,0.012,0.471,0.036
			c-0.317,0.225-0.485,0.402-0.69,0.481c-2.516,0.967-5.04,1.912-7.555,2.878c-1.467,0.563-2.92,1.156-4.38,1.732
			C62.141,37.399,61.843,37.501,61.457,37.641z"/>
		<path fill-rule="evenodd" clip-rule="evenodd" d="M110.124,85.474c0.02-1.74,0.758-3.127,1.965-4.298
			c0.148-0.144,0.399-0.197,0.612-0.259c0.701-0.205,1.184-0.064,1.438,0.397c0.29,0.532,0.192,1.237-0.261,1.679
			c-0.182,0.176-0.403,0.315-0.617,0.454C112.257,84.1,111.252,84.746,110.124,85.474z"/>
		<path fill-rule="evenodd" clip-rule="evenodd" d="M111.735,86.407c1.405-1.348,3.012-2.293,5.052-2.28
			c0.784,0.004,1.207,0.38,1.252,0.936c0.044,0.527-0.337,1-1.081,1.145c-0.578,0.113-1.188,0.114-1.779,0.09
			c-0.927-0.037-1.851-0.188-2.733,0.259c-0.183,0.092-0.425,0.065-0.64,0.093C111.782,86.569,111.76,86.488,111.735,86.407z"/>
		<path fill-rule="evenodd" clip-rule="evenodd" d="M105.28,88.826c-1.064-0.505-2.074-0.973-3.072-1.468
			c-0.223-0.11-0.416-0.299-0.59-0.483c-0.443-0.467-0.525-0.983-0.251-1.384c0.285-0.417,0.97-0.651,1.462-0.447
			c0.322,0.134,0.665,0.301,0.901,0.546C104.591,86.485,105.142,87.543,105.28,88.826z"/>
	</g>
</g>
</svg>
